<svg width="270.000000" height="245.000000" viewBox="0 0 270 245" fill="none" xmlns="http://www.w3.org/2000/svg" xmlns:xlink="http://www.w3.org/1999/xlink">
	<desc>
			Created with Pixso.
	</desc>
	<defs>
		<clipPath id="clip711_199">
			<rect id="Icon" width="100.000000" height="100.000000" transform="translate(85.000000 0.000000)" fill="white" fill-opacity="0"/>
		</clipPath>
		<linearGradient id="paint_linear_711_197_0" x1="135.000000" y1="189.000000" x2="135.000000" y2="245.000000" gradientUnits="userSpaceOnUse">
			<stop stop-color="#39463F"/>
			<stop offset="1.000000" stop-color="#101612"/>
		</linearGradient>
	</defs>
	<path id="Place your online Order easily and get the food instantly" d="M8.60977 207.5L9.65377 207.5L9.65377 203.306L12.5878 203.306C15.4858 203.306 17.3938 201.362 17.3938 198.824C17.3938 196.286 15.4858 194.36 12.5878 194.36L8.60977 194.36L8.60977 207.5ZM12.5338 195.314C14.8918 195.314 16.3318 196.808 16.3318 198.824C16.3318 200.804 14.8918 202.334 12.5338 202.334L9.65377 202.334L9.65377 195.314L12.5338 195.314ZM19.6651 207.5L20.7091 207.5L20.7091 194.36L19.6651 194.36L19.6651 207.5ZM27.5338 207.68C28.9018 207.68 30.4318 206.942 31.1698 205.628L31.1698 207.5L32.1958 207.5L32.1958 198.5L31.1698 198.5L31.1698 200.372C30.4318 199.058 28.9018 198.32 27.5338 198.32C24.8878 198.32 22.9078 200.426 22.9078 203C22.9078 205.574 24.9058 207.68 27.5338 207.68ZM27.5878 206.744C25.5538 206.744 23.9338 205.07 23.9338 203C23.9338 200.93 25.5538 199.256 27.5878 199.256C29.6758 199.256 31.2778 200.948 31.2778 203C31.2778 205.07 29.6758 206.744 27.5878 206.744ZM39.0848 207.68C41.1548 207.68 42.6668 206.51 43.3688 204.854L42.4147 204.458C41.8568 205.772 40.7048 206.744 39.1027 206.744C36.9967 206.744 35.3947 205.07 35.3947 203C35.3947 200.93 36.9788 199.256 39.0488 199.256C40.5967 199.256 41.7848 200.102 42.3787 201.452L43.3148 201.056C42.6307 199.436 41.0288 198.32 39.0667 198.32C36.4388 198.32 34.3688 200.336 34.3688 203C34.3688 205.592 36.3848 207.68 39.0848 207.68ZM49.7727 207.68C51.8607 207.68 53.2467 206.672 54.0567 204.944L53.1567 204.512C52.5627 205.898 51.4287 206.762 49.7547 206.762C47.6307 206.762 46.1547 205.322 46.0107 203.342L54.3087 203.342L54.3087 202.892C54.3087 200.192 52.3287 198.32 49.7007 198.32C47.0187 198.32 45.0387 200.39 45.0387 203.054C45.0387 205.682 46.8567 207.68 49.7727 207.68ZM49.7007 199.238C51.6987 199.238 53.0487 200.516 53.2467 202.406L46.0467 202.406C46.3347 200.588 47.8107 199.238 49.7007 199.238ZM62.3212 211.658L63.4192 211.658L69.2332 198.5L68.1172 198.5L64.9492 205.826L61.5472 198.5L60.4132 198.5L64.3912 206.996L62.3212 211.658ZM74.855 207.68C77.447 207.68 79.535 205.628 79.535 203C79.535 200.372 77.447 198.32 74.855 198.32C72.263 198.32 70.193 200.372 70.193 203C70.193 205.628 72.263 207.68 74.855 207.68ZM74.855 206.744C72.821 206.744 71.219 205.07 71.219 203C71.219 200.93 72.821 199.256 74.855 199.256C76.889 199.256 78.491 200.93 78.491 203C78.491 205.07 76.889 206.744 74.855 206.744ZM85.6935 207.68C87.1695 207.68 88.3755 206.942 88.9875 205.844L88.9875 207.5L89.9955 207.5L89.9955 198.5L88.9695 198.5L88.9695 203.522C88.9695 205.358 87.5835 206.744 85.7835 206.744C83.8215 206.744 82.7055 205.466 82.7055 203.54L82.7055 198.5L81.6795 198.5L81.6795 203.54C81.6795 206.114 83.1555 207.68 85.6935 207.68ZM92.6667 207.5L93.6927 207.5L93.6927 202.802C93.6927 200.642 94.7007 199.454 96.6087 199.454L97.4547 199.454L97.4547 198.5L96.6087 198.5C95.2227 198.5 94.1967 199.166 93.6747 200.246L93.6747 198.5L92.6667 198.5L92.6667 207.5ZM108.412 207.68C111.004 207.68 113.092 205.628 113.092 203C113.092 200.372 111.004 198.32 108.412 198.32C105.82 198.32 103.75 200.372 103.75 203C103.75 205.628 105.82 207.68 108.412 207.68ZM108.412 206.744C106.378 206.744 104.776 205.07 104.776 203C104.776 200.93 106.378 199.256 108.412 199.256C110.446 199.256 112.048 200.93 112.048 203C112.048 205.07 110.446 206.744 108.412 206.744ZM115.272 207.5L116.28 207.5L116.28 202.478C116.28 200.642 117.666 199.256 119.484 199.256C121.446 199.256 122.562 200.534 122.562 202.46L122.562 207.5L123.588 207.5L123.588 202.46C123.588 199.886 122.022 198.32 119.61 198.32C118.08 198.32 116.874 199.094 116.262 200.192L116.262 198.5L115.272 198.5L115.272 207.5ZM126.118 207.5L127.162 207.5L127.162 194.36L126.118 194.36L126.118 207.5ZM129.862 207.5L130.888 207.5L130.888 198.5L129.862 198.5L129.862 207.5ZM129.862 196.97L130.888 196.97L130.888 194.36L129.862 194.36L129.862 196.97ZM133.483 207.5L134.491 207.5L134.491 202.478C134.491 200.642 135.877 199.256 137.695 199.256C139.657 199.256 140.773 200.534 140.773 202.46L140.773 207.5L141.799 207.5L141.799 202.46C141.799 199.886 140.233 198.32 137.821 198.32C136.291 198.32 135.085 199.094 134.473 200.192L134.473 198.5L133.483 198.5L133.483 207.5ZM148.667 207.68C150.755 207.68 152.141 206.672 152.951 204.944L152.051 204.512C151.457 205.898 150.323 206.762 148.649 206.762C146.525 206.762 145.049 205.322 144.905 203.342L153.203 203.342L153.203 202.892C153.203 200.192 151.223 198.32 148.595 198.32C145.913 198.32 143.933 200.39 143.933 203.054C143.933 205.682 145.751 207.68 148.667 207.68ZM148.595 199.238C150.593 199.238 151.943 200.516 152.141 202.406L144.941 202.406C145.229 200.588 146.705 199.238 148.595 199.238ZM166.382 207.68C170.108 207.68 173.132 204.656 173.132 200.93C173.132 197.204 170.108 194.18 166.382 194.18C162.656 194.18 159.632 197.204 159.632 200.93C159.632 204.656 162.656 207.68 166.382 207.68ZM166.382 206.69C163.178 206.69 160.694 204.098 160.694 200.93C160.694 197.762 163.178 195.17 166.382 195.17C169.586 195.17 172.052 197.762 172.052 200.93C172.052 204.098 169.586 206.69 166.382 206.69ZM175.53 207.5L176.556 207.5L176.556 202.802C176.556 200.642 177.564 199.454 179.472 199.454L180.318 199.454L180.318 198.5L179.472 198.5C178.086 198.5 177.06 199.166 176.538 200.246L176.538 198.5L175.53 198.5L175.53 207.5ZM185.948 207.68C187.316 207.68 188.846 206.942 189.584 205.628L189.584 207.5L190.574 207.5L190.574 194.36L189.584 194.36L189.584 200.372C188.846 199.058 187.316 198.32 185.948 198.32C183.302 198.32 181.322 200.426 181.322 203C181.322 205.574 183.32 207.68 185.948 207.68ZM186.002 206.744C183.968 206.744 182.348 205.07 182.348 203C182.348 200.93 183.968 199.256 186.002 199.256C188.09 199.256 189.692 200.948 189.692 203C189.692 205.07 188.09 206.744 186.002 206.744ZM197.499 207.68C199.587 207.68 200.973 206.672 201.783 204.944L200.883 204.512C200.289 205.898 199.155 206.762 197.481 206.762C195.357 206.762 193.881 205.322 193.737 203.342L202.035 203.342L202.035 202.892C202.035 200.192 200.055 198.32 197.427 198.32C194.745 198.32 192.765 200.39 192.765 203.054C192.765 205.682 194.583 207.68 197.499 207.68ZM197.427 199.238C199.425 199.238 200.775 200.516 200.973 202.406L193.773 202.406C194.061 200.588 195.537 199.238 197.427 199.238ZM204.217 207.5L205.243 207.5L205.243 202.802C205.243 200.642 206.251 199.454 208.159 199.454L209.005 199.454L209.005 198.5L208.159 198.5C206.773 198.5 205.747 199.166 205.225 200.246L205.225 198.5L204.217 198.5L204.217 207.5ZM220.034 207.68C222.122 207.68 223.508 206.672 224.318 204.944L223.418 204.512C222.824 205.898 221.69 206.762 220.016 206.762C217.892 206.762 216.416 205.322 216.272 203.342L224.57 203.342L224.57 202.892C224.57 200.192 222.59 198.32 219.962 198.32C217.28 198.32 215.3 200.39 215.3 203.054C215.3 205.682 217.118 207.68 220.034 207.68ZM219.962 199.238C221.96 199.238 223.31 200.516 223.508 202.406L216.308 202.406C216.596 200.588 218.072 199.238 219.962 199.238ZM231.001 207.68C232.369 207.68 233.899 206.942 234.637 205.628L234.637 207.5L235.663 207.5L235.663 198.5L234.637 198.5L234.637 200.372C233.899 199.058 232.369 198.32 231.001 198.32C228.355 198.32 226.375 200.426 226.375 203C226.375 205.574 228.373 207.68 231.001 207.68ZM231.055 206.744C229.021 206.744 227.401 205.07 227.401 203C227.401 200.93 229.021 199.256 231.055 199.256C233.143 199.256 234.745 200.948 234.745 203C234.745 205.07 233.143 206.744 231.055 206.744ZM241.076 207.68C243.434 207.68 244.442 206.204 244.442 204.98C244.442 203.252 242.876 202.802 241.418 202.442C240.122 202.118 238.916 201.848 238.916 200.786C238.916 199.886 239.69 199.184 241.058 199.184C242.102 199.184 242.894 199.562 243.506 200.264L244.28 199.634C243.542 198.788 242.354 198.302 241.058 198.302C239.114 198.302 237.908 199.472 237.908 200.804C237.908 202.478 239.42 202.946 240.86 203.306C242.174 203.63 243.434 203.864 243.434 204.98C243.434 205.934 242.66 206.78 241.112 206.78C239.888 206.78 238.898 206.168 238.286 205.34L237.476 205.988C238.232 206.996 239.528 207.68 241.076 207.68ZM246.616 207.5L247.642 207.5L247.642 198.5L246.616 198.5L246.616 207.5ZM246.616 196.97L247.642 196.97L247.642 194.36L246.616 194.36L246.616 196.97ZM250.343 207.5L251.387 207.5L251.387 194.36L250.343 194.36L250.343 207.5ZM255.224 211.658L256.322 211.658L262.136 198.5L261.02 198.5L257.852 205.826L254.45 198.5L253.316 198.5L257.294 206.996L255.224 211.658ZM31.0582 235.68C32.4262 235.68 33.9562 234.942 34.6942 233.628L34.6942 235.5L35.7202 235.5L35.7202 226.5L34.6942 226.5L34.6942 228.372C33.9562 227.058 32.4262 226.32 31.0582 226.32C28.4122 226.32 26.4322 228.426 26.4322 231C26.4322 233.574 28.4302 235.68 31.0582 235.68ZM31.1122 234.744C29.0782 234.744 27.4582 233.07 27.4582 231C27.4582 228.93 29.0782 227.256 31.1122 227.256C33.2002 227.256 34.8022 228.948 34.8022 231C34.8022 233.07 33.2002 234.744 31.1122 234.744ZM38.3942 235.5L39.4022 235.5L39.4022 230.478C39.4022 228.642 40.7882 227.256 42.6062 227.256C44.5682 227.256 45.6842 228.534 45.6842 230.46L45.6842 235.5L46.7102 235.5L46.7102 230.46C46.7102 227.886 45.1442 226.32 42.7322 226.32C41.2022 226.32 39.9962 227.094 39.3842 228.192L39.3842 226.5L38.3942 226.5L38.3942 235.5ZM53.4703 235.68C54.8383 235.68 56.3683 234.942 57.1063 233.628L57.1063 235.5L58.0963 235.5L58.0963 222.36L57.1063 222.36L57.1063 228.372C56.3683 227.058 54.8383 226.32 53.4703 226.32C50.8243 226.32 48.8443 228.426 48.8443 231C48.8443 233.574 50.8423 235.68 53.4703 235.68ZM53.5243 234.744C51.4903 234.744 49.8703 233.07 49.8703 231C49.8703 228.93 51.4903 227.256 53.5243 227.256C55.6123 227.256 57.2143 228.948 57.2143 231C57.2143 233.07 55.6123 234.744 53.5243 234.744ZM69.484 235.68C70.87 235.68 72.4 234.942 73.138 233.592L73.138 235.356C73.138 237.516 71.806 238.956 69.7 238.956C67.99 238.956 66.982 238.218 66.496 237.048L65.488 237.39C66.136 238.902 67.486 239.874 69.7 239.874C72.382 239.874 74.146 238.092 74.146 235.32L74.146 226.5L73.12 226.5L73.12 228.372C72.382 227.058 70.852 226.32 69.484 226.32C66.838 226.32 64.858 228.426 64.858 231C64.858 233.574 66.856 235.68 69.484 235.68ZM69.538 234.744C67.504 234.744 65.884 233.07 65.884 231C65.884 228.93 67.504 227.256 69.538 227.256C71.626 227.256 73.228 228.948 73.228 231C73.228 233.07 71.626 234.744 69.538 234.744ZM81.0529 235.68C83.1409 235.68 84.5269 234.672 85.3369 232.944L84.4369 232.512C83.8429 233.898 82.7089 234.762 81.0349 234.762C78.9109 234.762 77.4349 233.322 77.2909 231.342L85.5889 231.342L85.5889 230.892C85.5889 228.192 83.6089 226.32 80.9809 226.32C78.2989 226.32 76.3189 228.39 76.3189 231.054C76.3189 233.682 78.1369 235.68 81.0529 235.68ZM80.9809 227.238C82.9789 227.238 84.3289 228.516 84.5269 230.406L77.3269 230.406C77.6149 228.588 79.0909 227.238 80.9809 227.238ZM86.8055 227.418L88.3535 227.418L88.3535 232.224C88.3535 234.816 89.0375 235.5 91.5395 235.5L91.6835 235.5L91.6835 234.546C89.7935 234.546 89.3975 234.204 89.3975 232.206L89.3975 227.418L91.6835 227.418L91.6835 226.5L89.3975 226.5L89.3975 223.782L88.3535 224.394L88.3535 226.5L86.8055 226.5L86.8055 227.418ZM97.6512 227.418L99.1992 227.418L99.1992 232.224C99.1992 234.816 99.8832 235.5 102.385 235.5L102.529 235.5L102.529 234.546C100.639 234.546 100.243 234.204 100.243 232.206L100.243 227.418L102.529 227.418L102.529 226.5L100.243 226.5L100.243 223.782L99.1992 224.394L99.1992 226.5L97.6512 226.5L97.6512 227.418ZM104.647 235.5L105.673 235.5L105.673 230.478C105.673 228.642 107.059 227.256 108.859 227.256C110.839 227.256 111.937 228.534 111.937 230.46L111.937 235.5L112.981 235.5L112.981 230.46C112.981 227.886 111.397 226.32 109.003 226.32C107.491 226.32 106.285 227.076 105.655 228.156L105.655 222.36L104.647 222.36L104.647 235.5ZM119.83 235.68C121.918 235.68 123.304 234.672 124.114 232.944L123.214 232.512C122.62 233.898 121.486 234.762 119.812 234.762C117.688 234.762 116.212 233.322 116.068 231.342L124.366 231.342L124.366 230.892C124.366 228.192 122.386 226.32 119.758 226.32C117.076 226.32 115.096 228.39 115.096 231.054C115.096 233.682 116.914 235.68 119.83 235.68ZM119.758 227.238C121.756 227.238 123.106 228.516 123.304 230.406L116.104 230.406C116.392 228.588 117.868 227.238 119.758 227.238ZM130.435 227.418L131.983 227.418L131.983 235.5L133.009 235.5L133.009 227.418L135.313 227.418L135.313 226.5L133.009 226.5L133.009 225.654C133.009 223.656 133.351 223.314 135.313 223.314L135.313 222.36L135.223 222.36C132.703 222.36 131.983 223.044 131.983 225.636L131.983 226.5L130.435 226.5L130.435 227.418ZM140.905 235.68C143.497 235.68 145.585 233.628 145.585 231C145.585 228.372 143.497 226.32 140.905 226.32C138.313 226.32 136.243 228.372 136.243 231C136.243 233.628 138.313 235.68 140.905 235.68ZM140.905 234.744C138.871 234.744 137.269 233.07 137.269 231C137.269 228.93 138.871 227.256 140.905 227.256C142.939 227.256 144.541 228.93 144.541 231C144.541 233.07 142.939 234.744 140.905 234.744ZM152.137 235.68C154.729 235.68 156.817 233.628 156.817 231C156.817 228.372 154.729 226.32 152.137 226.32C149.545 226.32 147.475 228.372 147.475 231C147.475 233.628 149.545 235.68 152.137 235.68ZM152.137 234.744C150.103 234.744 148.501 233.07 148.501 231C148.501 228.93 150.103 227.256 152.137 227.256C154.171 227.256 155.773 228.93 155.773 231C155.773 233.07 154.171 234.744 152.137 234.744ZM163.334 235.68C164.702 235.68 166.232 234.942 166.97 233.628L166.97 235.5L167.96 235.5L167.96 222.36L166.97 222.36L166.97 228.372C166.232 227.058 164.702 226.32 163.334 226.32C160.688 226.32 158.708 228.426 158.708 231C158.708 233.574 160.706 235.68 163.334 235.68ZM163.388 234.744C161.354 234.744 159.734 233.07 159.734 231C159.734 228.93 161.354 227.256 163.388 227.256C165.476 227.256 167.078 228.948 167.078 231C167.078 233.07 165.476 234.744 163.388 234.744ZM175.099 235.5L176.125 235.5L176.125 226.5L175.099 226.5L175.099 235.5ZM175.099 224.97L176.125 224.97L176.125 222.36L175.099 222.36L175.099 224.97ZM178.72 235.5L179.728 235.5L179.728 230.478C179.728 228.642 181.114 227.256 182.932 227.256C184.894 227.256 186.01 228.534 186.01 230.46L186.01 235.5L187.036 235.5L187.036 230.46C187.036 227.886 185.47 226.32 183.058 226.32C181.528 226.32 180.322 227.094 179.71 228.192L179.71 226.5L178.72 226.5L178.72 235.5ZM192.411 235.68C194.769 235.68 195.777 234.204 195.777 232.98C195.777 231.252 194.211 230.802 192.753 230.442C191.457 230.118 190.251 229.848 190.251 228.786C190.251 227.886 191.025 227.184 192.393 227.184C193.437 227.184 194.229 227.562 194.841 228.264L195.615 227.634C194.877 226.788 193.689 226.302 192.393 226.302C190.449 226.302 189.243 227.472 189.243 228.804C189.243 230.478 190.755 230.946 192.195 231.306C193.509 231.63 194.769 231.864 194.769 232.98C194.769 233.934 193.995 234.78 192.447 234.78C191.223 234.78 190.233 234.168 189.621 233.34L188.811 233.988C189.567 234.996 190.863 235.68 192.411 235.68ZM197.161 227.418L198.709 227.418L198.709 232.224C198.709 234.816 199.393 235.5 201.895 235.5L202.039 235.5L202.039 234.546C200.149 234.546 199.753 234.204 199.753 232.206L199.753 227.418L202.039 227.418L202.039 226.5L199.753 226.5L199.753 223.782L198.709 224.394L198.709 226.5L197.161 226.5L197.161 227.418ZM207.929 235.68C209.297 235.68 210.827 234.942 211.565 233.628L211.565 235.5L212.591 235.5L212.591 226.5L211.565 226.5L211.565 228.372C210.827 227.058 209.297 226.32 207.929 226.32C205.283 226.32 203.303 228.426 203.303 231C203.303 233.574 205.301 235.68 207.929 235.68ZM207.983 234.744C205.949 234.744 204.329 233.07 204.329 231C204.329 228.93 205.949 227.256 207.983 227.256C210.071 227.256 211.673 228.948 211.673 231C211.673 233.07 210.071 234.744 207.983 234.744ZM215.265 235.5L216.273 235.5L216.273 230.478C216.273 228.642 217.659 227.256 219.477 227.256C221.439 227.256 222.555 228.534 222.555 230.46L222.555 235.5L223.581 235.5L223.581 230.46C223.581 227.886 222.015 226.32 219.603 226.32C218.073 226.32 216.867 227.094 216.255 228.192L216.255 226.5L215.265 226.5L215.265 235.5ZM225.075 227.418L226.623 227.418L226.623 232.224C226.623 234.816 227.307 235.5 229.809 235.5L229.953 235.5L229.953 234.546C228.063 234.546 227.667 234.204 227.667 232.206L227.667 227.418L229.953 227.418L229.953 226.5L227.667 226.5L227.667 223.782L226.623 224.394L226.623 226.5L225.075 226.5L225.075 227.418ZM232.07 235.5L233.114 235.5L233.114 222.36L232.07 222.36L232.07 235.5ZM236.951 239.658L238.049 239.658L243.863 226.5L242.747 226.5L239.579 233.826L236.177 226.5L235.043 226.5L239.021 234.996L236.951 239.658Z" fill="url(#paint_linear_711_197_0)" fill-opacity="1.000000" fill-rule="evenodd"/>
	<path id="Live Order" d="M68.9743 160.5L80.2862 160.5L80.2862 157.588L72.0263 157.588L72.0263 140.06L68.9743 140.06L68.9743 160.5ZM82.9983 160.5L86.0223 160.5L86.0223 146.5L82.9983 146.5L82.9983 160.5ZM82.9983 144.568L86.0223 144.568L86.0223 140.648L82.9983 140.648L82.9983 144.568ZM93.4692 160.5L96.4652 160.5L101.757 146.5L98.6492 146.5L94.9812 156.608L91.2572 146.5L88.0932 146.5L93.4692 160.5ZM109.848 160.78C112.956 160.78 115.168 159.268 116.4 156.972L113.936 155.6C113.208 157.112 111.752 158.12 109.848 158.12C107.412 158.12 105.732 156.692 105.34 154.536L116.932 154.536L116.932 153.36C116.932 149.216 113.88 146.22 109.736 146.22C105.62 146.22 102.456 149.44 102.456 153.556C102.456 157.616 105.424 160.78 109.848 160.78ZM109.736 148.852C111.892 148.852 113.432 149.972 113.88 151.988L105.48 151.988C106.04 150.14 107.664 148.852 109.736 148.852ZM136.307 160.78C142.131 160.78 146.807 156.076 146.807 150.28C146.807 144.484 142.131 139.78 136.307 139.78C130.511 139.78 125.835 144.484 125.835 150.28C125.835 156.076 130.511 160.78 136.307 160.78ZM136.307 157.812C132.135 157.812 128.887 154.424 128.887 150.28C128.887 146.136 132.135 142.72 136.307 142.72C140.507 142.72 143.755 146.136 143.755 150.28C143.755 154.424 140.507 157.812 136.307 157.812ZM149.498 160.5L152.522 160.5L152.522 153.556C152.522 150.644 153.474 149.356 155.91 149.356L158.01 149.356L158.01 146.5L156.358 146.5C154.51 146.5 153.222 147.284 152.494 148.656L152.494 146.5L149.498 146.5L149.498 160.5ZM166.194 160.78C168.042 160.78 169.806 159.94 170.87 158.568L170.87 160.5L173.838 160.5L173.838 140.06L170.87 140.06L170.87 148.32C169.834 147.032 168.07 146.22 166.222 146.22C162.554 146.22 159.222 149.02 159.222 153.5C159.222 157.952 162.638 160.78 166.194 160.78ZM166.614 158.036C164.122 158.036 162.19 156.02 162.19 153.472C162.19 150.924 164.122 148.936 166.614 148.936C169.162 148.936 171.038 150.98 171.038 153.472C171.038 155.992 169.162 158.036 166.614 158.036ZM183.621 160.78C186.729 160.78 188.941 159.268 190.173 156.972L187.709 155.6C186.981 157.112 185.525 158.12 183.621 158.12C181.185 158.12 179.505 156.692 179.113 154.536L190.705 154.536L190.705 153.36C190.705 149.216 187.653 146.22 183.509 146.22C179.393 146.22 176.229 149.44 176.229 153.556C176.229 157.616 179.197 160.78 183.621 160.78ZM183.509 148.852C185.665 148.852 187.205 149.972 187.653 151.988L179.253 151.988C179.813 150.14 181.437 148.852 183.509 148.852ZM193.112 160.5L196.136 160.5L196.136 153.556C196.136 150.644 197.088 149.356 199.524 149.356L201.624 149.356L201.624 146.5L199.972 146.5C198.124 146.5 196.836 147.284 196.108 148.656L196.108 146.5L193.112 146.5L193.112 160.5Z" fill="#181D19" fill-opacity="1.000000" fill-rule="evenodd"/>
	<rect id="Icon" width="100.000000" height="100.000000" transform="translate(85.000000 0.000000)" fill="#FFFFFF" fill-opacity="0"/>
	<g clip-path="url(#clip711_199)">
		<path id="Vector" d="M184.977 92.9075L177.12 49.624C177.042 49.192 176.774 48.8177 176.39 48.6042L156.616 37.6062C156.36 37.4632 156.072 37.4064 155.789 37.4282L159.387 83.8362L159.266 83.8901L182.931 94.5067C183.124 94.5928 183.328 94.6354 183.532 94.6354C183.855 94.6354 184.174 94.5294 184.437 94.3237C184.866 93.9885 185.074 93.4432 184.977 92.9075Z" fill="#28A248" fill-opacity="1.000000" fill-rule="nonzero"/>
		<path id="Vector" d="M135 48.1202L114.776 37.5868C114.534 37.4604 114.265 37.4089 114.001 37.4266C114.071 37.4223 114.141 37.4227 114.211 37.4282L110.614 83.8361L134.399 94.5068C134.591 94.5927 134.796 94.6355 135 94.6355L135 48.1202Z" fill="#32BD56" fill-opacity="1.000000" fill-rule="nonzero"/>
		<path id="Vector" d="M114.211 37.4283C113.928 37.4065 113.641 37.4633 113.384 37.6061L93.61 48.6042C93.226 48.8176 92.958 49.1917 92.8796 49.6239L85.0236 92.9074C84.9264 93.443 85.1342 93.9883 85.5632 94.3238C85.8263 94.5295 86.1456 94.6355 86.4679 94.6355C86.6716 94.6355 86.8766 94.5931 87.069 94.5068L110.605 83.948L114.211 37.4283Z" fill="#56D777" fill-opacity="1.000000" fill-rule="nonzero"/>
		<path id="Vector" d="M155.789 37.4275C155.594 37.4425 155.402 37.4943 155.224 37.5873L135 48.1205L135 94.6358C135 94.6358 135 94.6358 135 94.6358C135.204 94.6358 135.41 94.5932 135.601 94.5071L159.387 83.8364L155.789 37.4275Z" fill="#2FB652" fill-opacity="1.000000" fill-rule="nonzero"/>
		<path id="Vector" d="M90.4989 62.741L88.903 71.5338L112.535 59.0521L113.083 51.9741L113.174 50.8003L90.4989 62.741Z" fill="#FFDB56" fill-opacity="1.000000" fill-rule="nonzero"/>
		<path id="Vector" d="M112.747 56.3075L112.535 59.052L88.903 71.5337L85.0236 92.9074C84.9264 93.4429 85.1342 93.9883 85.5632 94.3238C85.8263 94.5294 86.1456 94.6355 86.4679 94.6355C86.6716 94.6355 86.8766 94.5931 87.069 94.5068L110.605 83.948L112.747 56.3075Z" fill="#A8EEFC" fill-opacity="1.000000" fill-rule="nonzero"/>
		<path id="Vector" d="M135.006 53.922L113.174 50.8003L112.535 59.0521L135 93.1691L135 80.7632L121.594 59.6542L135.006 61.2583L135.006 53.922Z" fill="#FEB618" fill-opacity="1.000000" fill-rule="nonzero"/>
		<path id="Vector" d="M174.833 47.7386L165.334 42.4552L156.342 44.5564L156.454 46.0087L156.898 51.738L174.833 47.7386Z" fill="#FEB618" fill-opacity="1.000000" fill-rule="nonzero"/>
		<path id="Vector" d="M157.696 62.0266L156.844 51.0405L156.342 44.5563L135.006 53.9219L135.006 61.2582L148.943 55.1977L157.696 62.0266Z" fill="#FFDB56" fill-opacity="1.000000" fill-rule="nonzero"/>
		<path id="Vector" d="M184.977 92.9075L183.003 82.0352L156.898 51.738L157.696 62.0267L184.468 94.2965C184.875 93.9592 185.071 93.4295 184.977 92.9075Z" fill="#FEB618" fill-opacity="1.000000" fill-rule="nonzero"/>
		<path id="Vector" d="M135.094 5.36426C123.773 5.36426 114.563 14.567 114.563 25.8787C114.563 32.876 117.885 40.3885 124.437 48.2073C129.249 53.9501 133.996 57.6437 134.196 57.7982C134.46 58.0026 134.777 58.1048 135.094 58.1048C135.411 58.1048 135.728 58.0026 135.992 57.7982C136.192 57.6437 140.939 53.9501 145.751 48.2073C152.304 40.3885 155.626 32.8762 155.626 25.8787C155.625 14.567 146.415 5.36426 135.094 5.36426ZM142.698 25.8785C142.698 30.0743 139.293 33.4758 135.094 33.4758C130.895 33.4758 127.49 30.0745 127.49 25.8785C127.49 21.6826 130.895 18.2812 135.094 18.2812C139.293 18.2812 142.698 21.6829 142.698 25.8785Z" fill="#FF4415" fill-opacity="1.000000" fill-rule="nonzero"/>
		<path id="Vector" d="M135.094 5.36426C134.197 5.36426 133.313 5.42249 132.446 5.53455C142.521 6.83673 150.329 15.4635 150.329 25.8787C150.329 32.876 147.007 40.3885 140.455 48.2073C137.36 51.9003 134.295 54.7438 132.446 56.3458C133.472 57.2349 134.125 57.743 134.196 57.7982C134.46 58.0026 134.777 58.1048 135.094 58.1048C135.411 58.1048 135.728 58.0026 135.992 57.7982C136.192 57.6437 140.939 53.9501 145.751 48.2073C152.304 40.3885 155.626 32.8762 155.626 25.8787C155.625 14.567 146.415 5.36426 135.094 5.36426Z" fill="#E13E15" fill-opacity="1.000000" fill-rule="nonzero"/>
		<path id="Vector" d="M135.601 94.5069L144.446 90.5389L135 80.7633L135 94.6356C135 94.6356 135 94.6356 135 94.6356C135.204 94.6356 135.409 94.5932 135.601 94.5069Z" fill="#FFBF33" fill-opacity="1.000000" fill-rule="nonzero"/>
		<path id="Vector" d="M177.12 49.624C177.042 49.1919 176.774 48.8177 176.39 48.6042L174.833 47.7384L156.898 51.7379L183.003 82.0349L177.12 49.624Z" fill="#1EA4E9" fill-opacity="1.000000" fill-rule="nonzero"/>
		<path id="Vector" d="M135 94.6355L135 93.1691L112.535 59.052L110.613 83.8362L134.399 94.507C134.591 94.5931 134.796 94.6355 135 94.6355Z" fill="#1EA4E9" fill-opacity="1.000000" fill-rule="nonzero"/>
	</g>
</svg>
