<svg width="270.000000" height="245.000000" viewBox="0 0 270 245" fill="none" xmlns="http://www.w3.org/2000/svg" xmlns:xlink="http://www.w3.org/1999/xlink">
	<desc>
			Created with Pixso.
	</desc>
	<defs>
		<linearGradient id="paint_linear_711_216_0" x1="135.000000" y1="189.000000" x2="135.000000" y2="245.000000" gradientUnits="userSpaceOnUse">
			<stop stop-color="#39463F"/>
			<stop offset="1.000000" stop-color="#101612"/>
		</linearGradient>
	</defs>
	<path id="Organic food is grown without the use of synthetic chemicals" d="M13.5224 207.68C17.2484 207.68 20.2724 204.656 20.2724 200.93C20.2724 197.204 17.2484 194.18 13.5224 194.18C9.79636 194.18 6.77236 197.204 6.77236 200.93C6.77236 204.656 9.79636 207.68 13.5224 207.68ZM13.5224 206.69C10.3184 206.69 7.83436 204.098 7.83436 200.93C7.83436 197.762 10.3184 195.17 13.5224 195.17C16.7264 195.17 19.1924 197.762 19.1924 200.93C19.1924 204.098 16.7264 206.69 13.5224 206.69ZM22.6706 207.5L23.6966 207.5L23.6966 202.802C23.6966 200.642 24.7046 199.454 26.6126 199.454L27.4586 199.454L27.4586 198.5L26.6126 198.5C25.2266 198.5 24.2006 199.166 23.6786 200.246L23.6786 198.5L22.6706 198.5L22.6706 207.5ZM33.0885 207.68C34.4745 207.68 36.0045 206.942 36.7425 205.592L36.7425 207.356C36.7425 209.516 35.4105 210.956 33.3045 210.956C31.5945 210.956 30.5865 210.218 30.1005 209.048L29.0925 209.39C29.7405 210.902 31.0905 211.874 33.3045 211.874C35.9865 211.874 37.7505 210.092 37.7505 207.32L37.7505 198.5L36.7245 198.5L36.7245 200.372C35.9865 199.058 34.4565 198.32 33.0885 198.32C30.4425 198.32 28.4625 200.426 28.4625 203C28.4625 205.574 30.4605 207.68 33.0885 207.68ZM33.1425 206.744C31.1085 206.744 29.4885 205.07 29.4885 203C29.4885 200.93 31.1085 199.256 33.1425 199.256C35.2305 199.256 36.8325 200.948 36.8325 203C36.8325 205.07 35.2305 206.744 33.1425 206.744ZM44.5494 207.68C45.9174 207.68 47.4474 206.942 48.1854 205.628L48.1854 207.5L49.2114 207.5L49.2114 198.5L48.1854 198.5L48.1854 200.372C47.4474 199.058 45.9174 198.32 44.5494 198.32C41.9034 198.32 39.9234 200.426 39.9234 203C39.9234 205.574 41.9214 207.68 44.5494 207.68ZM44.6034 206.744C42.5694 206.744 40.9494 205.07 40.9494 203C40.9494 200.93 42.5694 199.256 44.6034 199.256C46.6914 199.256 48.2934 200.948 48.2934 203C48.2934 205.07 46.6914 206.744 44.6034 206.744ZM51.8854 207.5L52.8934 207.5L52.8934 202.478C52.8934 200.642 54.2794 199.256 56.0974 199.256C58.0594 199.256 59.1754 200.534 59.1754 202.46L59.1754 207.5L60.2014 207.5L60.2014 202.46C60.2014 199.886 58.6354 198.32 56.2234 198.32C54.6934 198.32 53.4874 199.094 52.8754 200.192L52.8754 198.5L51.8854 198.5L51.8854 207.5ZM62.7135 207.5L63.7395 207.5L63.7395 198.5L62.7135 198.5L62.7135 207.5ZM62.7135 196.97L63.7395 196.97L63.7395 194.36L62.7135 194.36L62.7135 196.97ZM70.6375 207.68C72.7075 207.68 74.2195 206.51 74.9215 204.854L73.9675 204.458C73.4095 205.772 72.2575 206.744 70.6555 206.744C68.5495 206.744 66.9475 205.07 66.9475 203C66.9475 200.93 68.5315 199.256 70.6015 199.256C72.1495 199.256 73.3375 200.102 73.9315 201.452L74.8675 201.056C74.1835 199.436 72.5815 198.32 70.6195 198.32C67.9915 198.32 65.9215 200.336 65.9215 203C65.9215 205.592 67.9375 207.68 70.6375 207.68ZM80.8557 199.418L82.4037 199.418L82.4037 207.5L83.4297 207.5L83.4297 199.418L85.7337 199.418L85.7337 198.5L83.4297 198.5L83.4297 197.654C83.4297 195.656 83.7717 195.314 85.7337 195.314L85.7337 194.36L85.6437 194.36C83.1237 194.36 82.4037 195.044 82.4037 197.636L82.4037 198.5L80.8557 198.5L80.8557 199.418ZM91.3257 207.68C93.9177 207.68 96.0057 205.628 96.0057 203C96.0057 200.372 93.9177 198.32 91.3257 198.32C88.7337 198.32 86.6637 200.372 86.6637 203C86.6637 205.628 88.7337 207.68 91.3257 207.68ZM91.3257 206.744C89.2917 206.744 87.6897 205.07 87.6897 203C87.6897 200.93 89.2917 199.256 91.3257 199.256C93.3597 199.256 94.9617 200.93 94.9617 203C94.9617 205.07 93.3597 206.744 91.3257 206.744ZM102.558 207.68C105.15 207.68 107.238 205.628 107.238 203C107.238 200.372 105.15 198.32 102.558 198.32C99.9661 198.32 97.8961 200.372 97.8961 203C97.8961 205.628 99.9661 207.68 102.558 207.68ZM102.558 206.744C100.524 206.744 98.9221 205.07 98.9221 203C98.9221 200.93 100.524 199.256 102.558 199.256C104.592 199.256 106.194 200.93 106.194 203C106.194 205.07 104.592 206.744 102.558 206.744ZM113.755 207.68C115.123 207.68 116.653 206.942 117.391 205.628L117.391 207.5L118.381 207.5L118.381 194.36L117.391 194.36L117.391 200.372C116.653 199.058 115.123 198.32 113.755 198.32C111.109 198.32 109.129 200.426 109.129 203C109.129 205.574 111.127 207.68 113.755 207.68ZM113.809 206.744C111.775 206.744 110.155 205.07 110.155 203C110.155 200.93 111.775 199.256 113.809 199.256C115.897 199.256 117.499 200.948 117.499 203C117.499 205.07 115.897 206.744 113.809 206.744ZM125.52 207.5L126.546 207.5L126.546 198.5L125.52 198.5L125.52 207.5ZM125.52 196.97L126.546 196.97L126.546 194.36L125.52 194.36L125.52 196.97ZM131.968 207.68C134.326 207.68 135.334 206.204 135.334 204.98C135.334 203.252 133.768 202.802 132.31 202.442C131.014 202.118 129.808 201.848 129.808 200.786C129.808 199.886 130.582 199.184 131.95 199.184C132.994 199.184 133.786 199.562 134.398 200.264L135.172 199.634C134.434 198.788 133.246 198.302 131.95 198.302C130.006 198.302 128.8 199.472 128.8 200.804C128.8 202.478 130.312 202.946 131.752 203.306C133.066 203.63 134.326 203.864 134.326 204.98C134.326 205.934 133.552 206.78 132.004 206.78C130.78 206.78 129.79 206.168 129.178 205.34L128.368 205.988C129.124 206.996 130.42 207.68 131.968 207.68ZM146.327 207.68C147.713 207.68 149.243 206.942 149.981 205.592L149.981 207.356C149.981 209.516 148.649 210.956 146.543 210.956C144.833 210.956 143.825 210.218 143.339 209.048L142.331 209.39C142.979 210.902 144.329 211.874 146.543 211.874C149.225 211.874 150.989 210.092 150.989 207.32L150.989 198.5L149.963 198.5L149.963 200.372C149.225 199.058 147.695 198.32 146.327 198.32C143.681 198.32 141.701 200.426 141.701 203C141.701 205.574 143.699 207.68 146.327 207.68ZM146.381 206.744C144.347 206.744 142.727 205.07 142.727 203C142.727 200.93 144.347 199.256 146.381 199.256C148.469 199.256 150.071 200.948 150.071 203C150.071 205.07 148.469 206.744 146.381 206.744ZM153.645 207.5L154.671 207.5L154.671 202.802C154.671 200.642 155.679 199.454 157.587 199.454L158.433 199.454L158.433 198.5L157.587 198.5C156.201 198.5 155.175 199.166 154.653 200.246L154.653 198.5L153.645 198.5L153.645 207.5ZM164.099 207.68C166.691 207.68 168.779 205.628 168.779 203C168.779 200.372 166.691 198.32 164.099 198.32C161.507 198.32 159.437 200.372 159.437 203C159.437 205.628 161.507 207.68 164.099 207.68ZM164.099 206.744C162.065 206.744 160.463 205.07 160.463 203C160.463 200.93 162.065 199.256 164.099 199.256C166.133 199.256 167.735 200.93 167.735 203C167.735 205.07 166.133 206.744 164.099 206.744ZM173.036 207.5L174.026 207.5L176.996 199.958L179.948 207.5L180.92 207.5L183.926 198.5L182.846 198.5L180.398 206.006L177.5 198.5L176.528 198.5L173.594 205.988L171.218 198.5L170.12 198.5L173.036 207.5ZM185.901 207.5L186.909 207.5L186.909 202.478C186.909 200.642 188.295 199.256 190.113 199.256C192.075 199.256 193.191 200.534 193.191 202.46L193.191 207.5L194.217 207.5L194.217 202.46C194.217 199.886 192.651 198.32 190.239 198.32C188.709 198.32 187.503 199.094 186.891 200.192L186.891 198.5L185.901 198.5L185.901 207.5ZM203.639 207.5L204.629 207.5L207.599 199.958L210.551 207.5L211.523 207.5L214.529 198.5L213.449 198.5L211.001 206.006L208.103 198.5L207.131 198.5L204.197 205.988L201.821 198.5L200.723 198.5L203.639 207.5ZM216.505 207.5L217.531 207.5L217.531 198.5L216.505 198.5L216.505 207.5ZM216.505 196.97L217.531 196.97L217.531 194.36L216.505 194.36L216.505 196.97ZM219.389 199.418L220.936 199.418L220.936 204.224C220.936 206.816 221.62 207.5 224.122 207.5L224.266 207.5L224.266 206.546C222.376 206.546 221.98 206.204 221.98 204.206L221.98 199.418L224.266 199.418L224.266 198.5L221.98 198.5L221.98 195.782L220.936 196.394L220.936 198.5L219.389 198.5L219.389 199.418ZM226.384 207.5L227.41 207.5L227.41 202.478C227.41 200.642 228.796 199.256 230.596 199.256C232.576 199.256 233.674 200.534 233.674 202.46L233.674 207.5L234.718 207.5L234.718 202.46C234.718 199.886 233.134 198.32 230.74 198.32C229.228 198.32 228.022 199.076 227.392 200.156L227.392 194.36L226.384 194.36L226.384 207.5ZM241.496 207.68C244.088 207.68 246.176 205.628 246.176 203C246.176 200.372 244.088 198.32 241.496 198.32C238.904 198.32 236.834 200.372 236.834 203C236.834 205.628 238.904 207.68 241.496 207.68ZM241.496 206.744C239.462 206.744 237.86 205.07 237.86 203C237.86 200.93 239.462 199.256 241.496 199.256C243.53 199.256 245.132 200.93 245.132 203C245.132 205.07 243.53 206.744 241.496 206.744ZM252.334 207.68C253.81 207.68 255.016 206.942 255.628 205.844L255.628 207.5L256.636 207.5L256.636 198.5L255.61 198.5L255.61 203.522C255.61 205.358 254.224 206.744 252.424 206.744C250.462 206.744 249.346 205.466 249.346 203.54L249.346 198.5L248.32 198.5L248.32 203.54C248.32 206.114 249.796 207.68 252.334 207.68ZM258.482 199.418L260.03 199.418L260.03 204.224C260.03 206.816 260.714 207.5 263.216 207.5L263.36 207.5L263.36 206.546C261.47 206.546 261.074 206.204 261.074 204.206L261.074 199.418L263.36 199.418L263.36 198.5L261.074 198.5L261.074 195.782L260.03 196.394L260.03 198.5L258.482 198.5L258.482 199.418ZM6.11311 227.418L7.66111 227.418L7.66111 232.224C7.66111 234.816 8.34511 235.5 10.8471 235.5L10.9911 235.5L10.9911 234.546C9.10111 234.546 8.70511 234.204 8.70511 232.206L8.70511 227.418L10.9911 227.418L10.9911 226.5L8.70511 226.5L8.70511 223.782L7.66111 224.394L7.66111 226.5L6.11311 226.5L6.11311 227.418ZM13.1085 235.5L14.1345 235.5L14.1345 230.478C14.1345 228.642 15.5205 227.256 17.3205 227.256C19.3005 227.256 20.3985 228.534 20.3985 230.46L20.3985 235.5L21.4425 235.5L21.4425 230.46C21.4425 227.886 19.8585 226.32 17.4645 226.32C15.9525 226.32 14.7465 227.076 14.1165 228.156L14.1165 222.36L13.1085 222.36L13.1085 235.5ZM28.2922 235.68C30.3802 235.68 31.7662 234.672 32.5762 232.944L31.6762 232.512C31.0822 233.898 29.9482 234.762 28.2742 234.762C26.1502 234.762 24.6742 233.322 24.5302 231.342L32.8282 231.342L32.8282 230.892C32.8282 228.192 30.8482 226.32 28.2202 226.32C25.5382 226.32 23.5582 228.39 23.5582 231.054C23.5582 233.682 25.3762 235.68 28.2922 235.68ZM28.2202 227.238C30.2182 227.238 31.5682 228.516 31.7662 230.406L24.5662 230.406C24.8542 228.588 26.3302 227.238 28.2202 227.238ZM43.5587 235.68C45.0347 235.68 46.2407 234.942 46.8527 233.844L46.8527 235.5L47.8607 235.5L47.8607 226.5L46.8347 226.5L46.8347 231.522C46.8347 233.358 45.4487 234.744 43.6487 234.744C41.6867 234.744 40.5707 233.466 40.5707 231.54L40.5707 226.5L39.5447 226.5L39.5447 231.54C39.5447 234.114 41.0207 235.68 43.5587 235.68ZM53.2709 235.68C55.6289 235.68 56.6369 234.204 56.6369 232.98C56.6369 231.252 55.0709 230.802 53.6129 230.442C52.3169 230.118 51.1109 229.848 51.1109 228.786C51.1109 227.886 51.8849 227.184 53.2529 227.184C54.2969 227.184 55.0889 227.562 55.7009 228.264L56.4749 227.634C55.7369 226.788 54.5489 226.302 53.2529 226.302C51.3089 226.302 50.1029 227.472 50.1029 228.804C50.1029 230.478 51.6149 230.946 53.0549 231.306C54.3689 231.63 55.6289 231.864 55.6289 232.98C55.6289 233.934 54.8549 234.78 53.3069 234.78C52.0829 234.78 51.0929 234.168 50.4809 233.34L49.6709 233.988C50.4269 234.996 51.7229 235.68 53.2709 235.68ZM63.1672 235.68C65.2552 235.68 66.6412 234.672 67.4512 232.944L66.5512 232.512C65.9572 233.898 64.8232 234.762 63.1492 234.762C61.0252 234.762 59.5492 233.322 59.4052 231.342L67.7032 231.342L67.7032 230.892C67.7032 228.192 65.7232 226.32 63.0952 226.32C60.4132 226.32 58.4332 228.39 58.4332 231.054C58.4332 233.682 60.2512 235.68 63.1672 235.68ZM63.0952 227.238C65.0932 227.238 66.4432 228.516 66.6412 230.406L59.4412 230.406C59.7292 228.588 61.2052 227.238 63.0952 227.238ZM78.7397 235.68C81.3317 235.68 83.4197 233.628 83.4197 231C83.4197 228.372 81.3317 226.32 78.7397 226.32C76.1477 226.32 74.0777 228.372 74.0777 231C74.0777 233.628 76.1477 235.68 78.7397 235.68ZM78.7397 234.744C76.7057 234.744 75.1037 233.07 75.1037 231C75.1037 228.93 76.7057 227.256 78.7397 227.256C80.7737 227.256 82.3757 228.93 82.3757 231C82.3757 233.07 80.7737 234.744 78.7397 234.744ZM84.6526 227.418L86.2006 227.418L86.2006 235.5L87.2266 235.5L87.2266 227.418L89.5306 227.418L89.5306 226.5L87.2266 226.5L87.2266 225.654C87.2266 223.656 87.5686 223.314 89.5306 223.314L89.5306 222.36L89.4406 222.36C86.9206 222.36 86.2006 223.044 86.2006 225.636L86.2006 226.5L84.6526 226.5L84.6526 227.418ZM98.9388 235.68C101.297 235.68 102.305 234.204 102.305 232.98C102.305 231.252 100.739 230.802 99.2808 230.442C97.9848 230.118 96.7788 229.848 96.7788 228.786C96.7788 227.886 97.5528 227.184 98.9208 227.184C99.9648 227.184 100.757 227.562 101.369 228.264L102.143 227.634C101.405 226.788 100.217 226.302 98.9208 226.302C96.9768 226.302 95.7708 227.472 95.7708 228.804C95.7708 230.478 97.2828 230.946 98.7228 231.306C100.037 231.63 101.297 231.864 101.297 232.98C101.297 233.934 100.523 234.78 98.9748 234.78C97.7508 234.78 96.7608 234.168 96.1488 233.34L95.3388 233.988C96.0948 234.996 97.3908 235.68 98.9388 235.68ZM105.476 239.658L106.574 239.658L112.387 226.5L111.271 226.5L108.104 233.826L104.701 226.5L103.567 226.5L107.546 234.996L105.476 239.658ZM114.27 235.5L115.278 235.5L115.278 230.478C115.278 228.642 116.664 227.256 118.482 227.256C120.444 227.256 121.56 228.534 121.56 230.46L121.56 235.5L122.586 235.5L122.586 230.46C122.586 227.886 121.02 226.32 118.608 226.32C117.078 226.32 115.872 227.094 115.26 228.192L115.26 226.5L114.27 226.5L114.27 235.5ZM124.08 227.418L125.628 227.418L125.628 232.224C125.628 234.816 126.312 235.5 128.814 235.5L128.958 235.5L128.958 234.546C127.068 234.546 126.672 234.204 126.672 232.206L126.672 227.418L128.958 227.418L128.958 226.5L126.672 226.5L126.672 223.782L125.628 224.394L125.628 226.5L124.08 226.5L124.08 227.418ZM131.075 235.5L132.101 235.5L132.101 230.478C132.101 228.642 133.487 227.256 135.287 227.256C137.267 227.256 138.365 228.534 138.365 230.46L138.365 235.5L139.409 235.5L139.409 230.46C139.409 227.886 137.825 226.32 135.431 226.32C133.919 226.32 132.713 227.076 132.083 228.156L132.083 222.36L131.075 222.36L131.075 235.5ZM146.259 235.68C148.347 235.68 149.733 234.672 150.543 232.944L149.643 232.512C149.049 233.898 147.915 234.762 146.241 234.762C144.117 234.762 142.641 233.322 142.497 231.342L150.795 231.342L150.795 230.892C150.795 228.192 148.815 226.32 146.187 226.32C143.505 226.32 141.525 228.39 141.525 231.054C141.525 233.682 143.343 235.68 146.259 235.68ZM146.187 227.238C148.185 227.238 149.535 228.516 149.733 230.406L142.533 230.406C142.821 228.588 144.297 227.238 146.187 227.238ZM152.012 227.418L153.56 227.418L153.56 232.224C153.56 234.816 154.244 235.5 156.746 235.5L156.89 235.5L156.89 234.546C155 234.546 154.604 234.204 154.604 232.206L154.604 227.418L156.89 227.418L156.89 226.5L154.604 226.5L154.604 223.782L153.56 224.394L153.56 226.5L152.012 226.5L152.012 227.418ZM158.989 235.5L160.015 235.5L160.015 226.5L158.989 226.5L158.989 235.5ZM158.989 224.97L160.015 224.97L160.015 222.36L158.989 222.36L158.989 224.97ZM166.913 235.68C168.983 235.68 170.495 234.51 171.197 232.854L170.243 232.458C169.685 233.772 168.533 234.744 166.931 234.744C164.825 234.744 163.223 233.07 163.223 231C163.223 228.93 164.807 227.256 166.877 227.256C168.425 227.256 169.613 228.102 170.207 229.452L171.143 229.056C170.459 227.436 168.857 226.32 166.895 226.32C164.267 226.32 162.197 228.336 162.197 231C162.197 233.592 164.213 235.68 166.913 235.68ZM182.153 235.68C184.223 235.68 185.735 234.51 186.437 232.854L185.483 232.458C184.925 233.772 183.773 234.744 182.171 234.744C180.065 234.744 178.463 233.07 178.463 231C178.463 228.93 180.047 227.256 182.117 227.256C183.665 227.256 184.853 228.102 185.447 229.452L186.383 229.056C185.699 227.436 184.097 226.32 182.135 226.32C179.507 226.32 177.437 228.336 177.437 231C177.437 233.592 179.453 235.68 182.153 235.68ZM188.503 235.5L189.529 235.5L189.529 230.478C189.529 228.642 190.915 227.256 192.715 227.256C194.695 227.256 195.793 228.534 195.793 230.46L195.793 235.5L196.837 235.5L196.837 230.46C196.837 227.886 195.253 226.32 192.859 226.32C191.347 226.32 190.141 227.076 189.511 228.156L189.511 222.36L188.503 222.36L188.503 235.5ZM203.687 235.68C205.775 235.68 207.161 234.672 207.971 232.944L207.071 232.512C206.477 233.898 205.343 234.762 203.669 234.762C201.545 234.762 200.069 233.322 199.925 231.342L208.223 231.342L208.223 230.892C208.223 228.192 206.243 226.32 203.615 226.32C200.933 226.32 198.953 228.39 198.953 231.054C198.953 233.682 200.771 235.68 203.687 235.68ZM203.615 227.238C205.613 227.238 206.963 228.516 207.161 230.406L199.961 230.406C200.249 228.588 201.725 227.238 203.615 227.238ZM210.405 235.5L211.413 235.5L211.413 230.406C211.413 228.48 212.727 227.238 214.491 227.238C216.273 227.238 217.389 228.354 217.389 230.046L217.389 235.5L218.415 235.5L218.415 230.244C218.415 228.39 219.747 227.238 221.439 227.238C223.293 227.238 224.445 228.48 224.445 230.208L224.445 235.5L225.471 235.5L225.471 230.28C225.471 227.922 223.977 226.32 221.457 226.32C219.801 226.32 218.505 227.184 217.965 228.444C217.497 227.166 216.327 226.32 214.563 226.32C213.087 226.32 211.971 227.022 211.395 228.084L211.395 226.5L210.405 226.5L210.405 235.5ZM227.983 235.5L229.009 235.5L229.009 226.5L227.983 226.5L227.983 235.5ZM227.983 224.97L229.009 224.97L229.009 222.36L227.983 222.36L227.983 224.97ZM235.907 235.68C237.977 235.68 239.489 234.51 240.191 232.854L239.237 232.458C238.679 233.772 237.527 234.744 235.925 234.744C233.819 234.744 232.217 233.07 232.217 231C232.217 228.93 233.801 227.256 235.871 227.256C237.419 227.256 238.607 228.102 239.201 229.452L240.137 229.056C239.453 227.436 237.851 226.32 235.889 226.32C233.261 226.32 231.191 228.336 231.191 231C231.191 233.592 233.207 235.68 235.907 235.68ZM246.487 235.68C247.855 235.68 249.385 234.942 250.123 233.628L250.123 235.5L251.149 235.5L251.149 226.5L250.123 226.5L250.123 228.372C249.385 227.058 247.855 226.32 246.487 226.32C243.841 226.32 241.861 228.426 241.861 231C241.861 233.574 243.859 235.68 246.487 235.68ZM246.541 234.744C244.507 234.744 242.887 233.07 242.887 231C242.887 228.93 244.507 227.256 246.541 227.256C248.629 227.256 250.231 228.948 250.231 231C250.231 233.07 248.629 234.744 246.541 234.744ZM253.718 235.5L254.762 235.5L254.762 222.36L253.718 222.36L253.718 235.5ZM260.201 235.68C262.559 235.68 263.567 234.204 263.567 232.98C263.567 231.252 262.001 230.802 260.543 230.442C259.247 230.118 258.041 229.848 258.041 228.786C258.041 227.886 258.815 227.184 260.183 227.184C261.227 227.184 262.019 227.562 262.631 228.264L263.405 227.634C262.667 226.788 261.479 226.302 260.183 226.302C258.239 226.302 257.033 227.472 257.033 228.804C257.033 230.478 258.545 230.946 259.985 231.306C261.299 231.63 262.559 231.864 262.559 232.98C262.559 233.934 261.785 234.78 260.237 234.78C259.013 234.78 258.023 234.168 257.411 233.34L256.601 233.988C257.357 234.996 258.653 235.68 260.201 235.68Z" fill="url(#paint_linear_711_216_0)" fill-opacity="1.000000" fill-rule="evenodd"/>
	<path id="100% Organic" d="M43.2828 160.5L57.3108 160.5L57.3108 157.588L51.7668 157.588L51.7668 140.06L48.8548 140.06C48.8548 141.516 47.9308 143.42 45.2428 143.42L45.1028 143.42L45.1028 146.584L45.4108 146.584C46.6708 146.584 48.1268 146.024 48.7428 145.128L48.7428 157.588L43.2828 157.588L43.2828 160.5ZM66.7157 157.84C64.2797 157.84 63.0477 156.356 63.0477 154.088L63.0477 146.584C63.0477 144.316 64.3357 142.692 66.7717 142.692C69.1517 142.692 70.4397 144.176 70.4397 146.584L70.4397 154.116C70.4397 156.3 69.1517 157.84 66.7157 157.84ZM66.7437 160.78C70.9997 160.78 73.4917 158.204 73.4917 154.2L73.4917 146.5C73.4917 142.748 70.8597 139.78 66.7437 139.78C62.7397 139.78 60.0237 142.664 60.0237 146.528L60.0237 154.2C60.0237 158.12 62.3757 160.78 66.7437 160.78ZM83.1767 157.84C80.7407 157.84 79.5087 156.356 79.5087 154.088L79.5087 146.584C79.5087 144.316 80.7967 142.692 83.2327 142.692C85.6127 142.692 86.9007 144.176 86.9007 146.584L86.9007 154.116C86.9007 156.3 85.6127 157.84 83.1767 157.84ZM83.2047 160.78C87.4607 160.78 89.9527 158.204 89.9527 154.2L89.9527 146.5C89.9527 142.748 87.3207 139.78 83.2047 139.78C79.2007 139.78 76.4847 142.664 76.4847 146.528L76.4847 154.2C76.4847 158.12 78.8367 160.78 83.2047 160.78ZM95.2136 144.652C95.2136 143.336 96.2496 142.3 97.5096 142.3C98.7696 142.3 99.8056 143.336 99.8056 144.652C99.8056 145.94 98.7696 147.004 97.5096 147.004C96.2496 147.004 95.2136 145.94 95.2136 144.652ZM104.174 155.908C104.174 158.624 106.33 160.808 109.046 160.808C111.734 160.808 113.918 158.624 113.918 155.908C113.918 153.22 111.734 151.036 109.046 151.036C106.33 151.036 104.174 153.22 104.174 155.908ZM92.5816 160.5L96.4176 160.5L113.974 140.06L110.138 140.06L92.5816 160.5ZM106.75 155.908C106.75 154.62 107.786 153.584 109.046 153.584C110.306 153.584 111.342 154.62 111.342 155.908C111.342 157.224 110.306 158.26 109.046 158.26C107.786 158.26 106.75 157.224 106.75 155.908ZM92.6376 144.652C92.6376 147.34 94.8216 149.524 97.5096 149.524C100.198 149.524 102.382 147.34 102.382 144.652C102.382 141.936 100.198 139.78 97.5096 139.78C94.8216 139.78 92.6376 141.936 92.6376 144.652ZM133.347 160.78C139.171 160.78 143.847 156.076 143.847 150.28C143.847 144.484 139.171 139.78 133.347 139.78C127.551 139.78 122.875 144.484 122.875 150.28C122.875 156.076 127.551 160.78 133.347 160.78ZM133.347 157.812C129.175 157.812 125.927 154.424 125.927 150.28C125.927 146.136 129.175 142.72 133.347 142.72C137.547 142.72 140.795 146.136 140.795 150.28C140.795 154.424 137.547 157.812 133.347 157.812ZM146.537 160.5L149.561 160.5L149.561 153.556C149.561 150.644 150.513 149.356 152.949 149.356L155.049 149.356L155.049 146.5L153.397 146.5C151.549 146.5 150.261 147.284 149.533 148.656L149.533 146.5L146.537 146.5L146.537 160.5ZM163.233 160.78C165.081 160.78 166.873 159.912 167.937 158.512L167.937 160.276C167.937 162.684 166.397 164.56 163.849 164.56C161.721 164.56 160.377 163.58 159.677 162.04L156.905 163.356C157.969 165.624 160.349 167.304 163.849 167.304C168.329 167.304 170.905 164.28 170.905 160.164L170.905 146.5L167.909 146.5L167.909 148.404C166.845 147.06 165.109 146.22 163.261 146.22C159.593 146.22 156.261 149.02 156.261 153.5C156.261 157.952 159.677 160.78 163.233 160.78ZM163.653 158.036C161.161 158.036 159.229 156.02 159.229 153.472C159.229 150.924 161.161 148.936 163.653 148.936C166.201 148.936 168.077 150.98 168.077 153.472C168.077 155.992 166.201 158.036 163.653 158.036ZM180.295 160.78C182.143 160.78 183.907 159.94 184.971 158.568L184.971 160.5L187.967 160.5L187.967 146.5L184.971 146.5L184.971 148.32C183.935 147.032 182.171 146.22 180.323 146.22C176.655 146.22 173.323 149.02 173.323 153.5C173.323 157.952 176.739 160.78 180.295 160.78ZM180.715 158.036C178.223 158.036 176.291 156.02 176.291 153.472C176.291 150.924 178.223 148.936 180.715 148.936C183.263 148.936 185.139 150.98 185.139 153.472C185.139 155.992 183.263 158.036 180.715 158.036ZM190.998 160.5L193.994 160.5L193.994 152.8C193.994 150.336 195.534 148.824 197.55 148.824C199.79 148.824 200.938 150.28 200.938 152.576L200.938 160.5L203.962 160.5L203.962 152.324C203.962 148.516 201.806 146.22 198.278 146.22C196.43 146.22 194.918 147.032 193.966 148.32L193.966 146.5L190.998 146.5L190.998 160.5ZM206.803 160.5L209.827 160.5L209.827 146.5L206.803 146.5L206.803 160.5ZM206.803 144.568L209.827 144.568L209.827 140.648L206.803 140.648L206.803 144.568ZM219.514 160.78C222.79 160.78 225.114 158.96 226.234 156.384L223.518 155.236C222.874 156.804 221.474 157.98 219.57 157.98C217.05 157.98 215.146 155.964 215.146 153.5C215.146 151.008 217.022 149.02 219.514 149.02C221.334 149.02 222.762 150.028 223.462 151.652L226.15 150.504C225.086 147.984 222.622 146.22 219.514 146.22C215.426 146.22 212.206 149.384 212.206 153.5C212.206 157.532 215.37 160.78 219.514 160.78Z" fill="#181D19" fill-opacity="1.000000" fill-rule="evenodd"/>
	<path id="Vector" d="M72.2998 97.7747C72.8971 98.5214 73.6663 99.1125 74.5415 99.4975C75.4167 99.8826 76.3722 100.05 77.3263 99.986C78.2803 99.9218 79.2047 99.6278 80.0205 99.129C80.8363 98.6302 81.5194 97.9414 82.0114 97.1215L90.9283 82.2599L91.0525 82.1854C94.4795 80.1292 98.3198 78.8584 102.297 78.4646C106.274 78.0708 110.289 78.5637 114.053 79.9079L114.053 79.9079C126.364 84.3048 139.794 84.4477 152.196 80.3137L152.196 80.3137C160.641 77.4987 168.267 72.657 174.407 66.2123C180.547 59.7675 185.015 51.916 187.417 43.345L199.57 0.00012207L185.67 7.90649C178.865 11.7774 171.334 14.2016 163.549 15.0272C155.763 15.8528 147.891 15.0621 140.426 12.7045L140.426 12.7045C134.727 10.905 128.679 10.5084 122.794 11.5483C116.91 12.5881 111.364 15.0338 106.627 18.6771L106.627 18.6772C102.397 21.931 98.9188 26.059 96.4294 30.7795C93.9399 35.5001 92.498 40.702 92.202 46.0305L91.2386 63.3708C91.0339 67.0558 90.0768 70.6598 88.4264 73.9608L86.494 77.8256L73.0251 89.6108C71.876 90.6162 71.1593 92.0263 71.0242 93.5472C70.889 95.0681 71.3459 96.5824 72.2998 97.7747Z" fill="#A0CC00" fill-opacity="1.000000" fill-rule="nonzero"/>
	<path id="Vector" d="M139.599 66.8682C139.253 67.2821 138.762 67.5487 138.227 67.6136C137.691 67.6785 137.151 67.5368 136.716 67.2175C132.957 64.4758 128.629 62.6148 124.053 61.7722C119.477 60.9295 114.77 61.1267 110.28 62.3493L100.393 65.0424C100.124 65.1155 99.8436 65.1351 99.5674 65.0998C99.2911 65.0646 99.0244 64.9752 98.7827 64.8369C98.5409 64.6985 98.3289 64.5139 98.1584 64.2936C97.988 64.0732 97.8628 63.8215 97.7897 63.5527L97.7389 63.3657C97.5914 62.8233 97.6655 62.2445 97.9447 61.7567C98.2239 61.2687 98.6853 60.9117 99.2277 60.764L109.113 58.0714C114.249 56.6726 119.634 56.4478 124.868 57.4138C130.103 58.3796 135.053 60.5115 139.351 63.6511C139.585 63.8226 139.78 64.04 139.926 64.29C140.073 64.54 140.166 64.8173 140.201 65.1047C140.236 65.3922 140.211 65.6837 140.129 65.9614C140.047 66.2391 139.909 66.497 139.723 66.7192L139.599 66.8682Z" fill="#85B200" fill-opacity="1.000000" fill-rule="nonzero"/>
	<path id="Vector" d="M164.021 51.3381C163.733 51.8014 163.277 52.1354 162.749 52.2704C162.221 52.4055 161.661 52.3311 161.186 52.0627C150.62 46.0123 138.217 44.0035 126.282 46.4097L119.545 47.7573C119.5 47.7663 119.455 47.7767 119.411 47.7886L113.09 49.4854C112.547 49.6312 111.968 49.5552 111.481 49.2743C110.994 48.9934 110.638 48.5305 110.493 47.9874L110.442 47.8C110.37 47.5311 110.352 47.2506 110.388 46.9745C110.424 46.6985 110.514 46.4323 110.653 46.191C110.792 45.9499 110.978 45.7385 111.198 45.5688C111.419 45.3992 111.671 45.2748 111.94 45.2026L118.331 43.4872L118.604 43.4232L125.413 42.0614C138.389 39.445 151.874 41.6262 163.364 48.2C163.614 48.3409 163.832 48.531 164.006 48.7587C164.181 48.9863 164.307 49.2469 164.378 49.5247C164.449 49.8024 164.463 50.0917 164.419 50.3751C164.376 50.6584 164.275 50.93 164.124 51.1735L164.021 51.3381Z" fill="#85B200" fill-opacity="1.000000" fill-rule="nonzero"/>
	<path id="Vector" d="M170.536 41.5308C168.216 41.5302 165.898 41.3648 163.601 41.0358L157.13 40.1115L144.521 38.2081C143.964 38.1241 143.465 37.8228 143.131 37.3703C142.797 36.9178 142.656 36.3512 142.74 35.7952L142.769 35.6036C142.811 35.3283 142.906 35.0638 143.05 34.8254C143.194 34.587 143.383 34.3792 143.607 34.2139C143.831 34.0485 144.086 33.929 144.356 33.8621C144.626 33.795 144.907 33.782 145.182 33.8235L157.775 35.7242L164.228 36.6458C169.252 37.3687 174.363 37.2209 179.337 36.209C179.87 36.1037 180.422 36.2077 180.881 36.4994C181.339 36.7911 181.667 37.248 181.797 37.7753L181.844 37.9628C181.913 38.2418 181.925 38.5319 181.879 38.8156C181.833 39.0992 181.73 39.3707 181.576 39.6133C181.422 39.856 181.22 40.065 180.983 40.2275C180.746 40.3901 180.479 40.5029 180.197 40.5592C177.017 41.205 173.781 41.5304 170.536 41.5308Z" fill="#85B200" fill-opacity="1.000000" fill-rule="nonzero"/>
	<path id="Vector" d="M105.602 51.2746C105.132 51.5828 104.56 51.692 104.01 51.5784C103.46 51.4648 102.977 51.1377 102.668 50.6688L101.842 49.4144C99.4657 45.8761 98.5576 41.5529 99.3093 37.3576C99.363 37.0578 99.4806 36.773 99.6539 36.5226C99.8274 36.2723 100.053 36.0621 100.315 35.9066C100.576 35.7509 100.869 35.6535 101.172 35.6208C101.474 35.5883 101.781 35.6212 102.07 35.7173L102.255 35.7791C102.74 35.9446 103.15 36.2792 103.409 36.7218C103.668 37.1644 103.76 37.6854 103.666 38.1897C103.136 41.2424 103.804 44.3821 105.531 46.9545L106.076 47.7719L106.377 48.23C106.53 48.4628 106.635 48.7233 106.687 48.9969C106.739 49.2704 106.737 49.5515 106.68 49.8242C106.624 50.0967 106.514 50.3556 106.357 50.5858C106.201 50.816 106 51.0132 105.768 51.166L105.602 51.2746Z" fill="#85B200" fill-opacity="1.000000" fill-rule="nonzero"/>
	<path id="Vector" d="M122.066 43.2124L121.872 43.2124C121.309 43.2124 120.77 42.989 120.372 42.5914C119.975 42.1938 119.751 41.6545 119.751 41.0922L119.751 32.6075C119.747 27.7392 120.988 22.9507 123.358 18.6981C123.5 18.441 123.694 18.2163 123.927 18.0379C124.16 17.8596 124.428 17.7314 124.713 17.6617C124.998 17.5919 125.295 17.582 125.584 17.6326C125.873 17.6832 126.149 17.7932 126.394 17.9556L126.556 18.0637C127 18.3617 127.315 18.8162 127.439 19.3364C127.563 19.8568 127.486 20.4045 127.224 20.8706C125.227 24.4601 124.182 28.5002 124.186 32.6075L124.186 41.0922C124.186 41.6545 123.962 42.1938 123.565 42.5914C123.167 42.989 122.628 43.2124 122.066 43.2124Z" fill="#85B200" fill-opacity="1.000000" fill-rule="nonzero"/>
	<path id="Vector" d="M138.683 34.6419L138.499 34.5806C138.235 34.4926 137.991 34.3534 137.78 34.171C137.57 33.9885 137.397 33.7665 137.273 33.5175C137.148 33.2684 137.074 32.9973 137.054 32.7195C137.035 32.4418 137.07 32.1629 137.158 31.8987L137.603 30.5637C138.958 26.5312 141.833 23.1868 145.617 21.2419C145.889 21.1027 146.188 21.0239 146.494 21.0109C146.799 20.998 147.104 21.0512 147.386 21.1669C147.669 21.2826 147.924 21.4581 148.133 21.6813C148.342 21.9046 148.5 22.1703 148.596 22.4604L148.658 22.6441C148.816 23.1299 148.794 23.6562 148.598 24.1277C148.401 24.5992 148.043 24.9849 147.587 25.2148C144.86 26.6324 142.789 29.0526 141.81 31.9659L141.365 33.301C141.187 33.8344 140.804 34.2753 140.301 34.5268C139.798 34.7783 139.216 34.8197 138.683 34.6419Z" fill="#85B200" fill-opacity="1.000000" fill-rule="nonzero"/>
	<path id="Vector" d="M199.57 0L185.871 19.076C181.191 25.5927 175.027 30.9016 167.889 34.5633C160.75 38.225 152.842 40.1345 144.82 40.1336C136.092 40.1337 127.513 42.3939 119.918 46.6941C112.324 50.9944 105.972 57.1881 101.482 64.6722L90.9285 82.2599L82.0127 97.1205C81.5723 97.855 80.9779 98.4853 80.2706 98.9681C79.5632 99.4509 78.7598 99.7747 77.9153 99.9173C77.0709 100.06 76.2056 100.018 75.379 99.7939C74.5524 99.5701 73.7841 99.1699 73.127 98.6208C72.4697 98.0716 71.9395 97.3866 71.5723 96.6129C71.2052 95.8392 71.0101 94.9951 71.0004 94.1388C70.9907 93.2825 71.1666 92.4342 71.5161 91.6524C71.8656 90.8705 72.3802 90.1737 73.0248 89.6098L86.4941 77.8256L95.6815 60.2849C100.267 51.5323 107.16 44.2012 115.614 39.0858C124.068 33.9705 133.761 31.2659 143.642 31.2649C156.823 31.2648 169.551 26.457 179.441 17.7429L199.57 0Z" fill="#85B200" fill-opacity="1.000000" fill-rule="nonzero"/>
	<path id="Vector" d="M90.9285 82.2598L82.0127 97.1204C81.5723 97.8549 80.9779 98.4852 80.2706 98.968C79.5632 99.4508 78.7598 99.7746 77.9153 99.9172C77.0709 100.06 76.2056 100.018 75.379 99.7939C74.5524 99.57 73.7841 99.1698 73.127 98.6206C72.4697 98.0715 71.9395 97.3865 71.5723 96.6128C71.2052 95.8391 71.0101 94.995 71.0004 94.1387C70.9907 93.2824 71.1666 92.4341 71.5161 91.6523C71.8656 90.8704 72.3802 90.1736 73.0248 89.6097L86.4941 77.8254L90.9285 82.2598Z" fill="#719600" fill-opacity="1.000000" fill-rule="nonzero"/>
</svg>
