<svg width="270.000000" height="245.000000" viewBox="0 0 270 245" fill="none" xmlns="http://www.w3.org/2000/svg" xmlns:xlink="http://www.w3.org/1999/xlink">
	<desc>
			Created with Pixso.
	</desc>
	<defs>
		<clipPath id="clip711_165">
			<rect id="Icon" width="100.000000" height="100.000000" transform="translate(85.000000 0.000000)" fill="white" fill-opacity="0"/>
		</clipPath>
		<linearGradient id="paint_linear_711_163_0" x1="135.000000" y1="189.000000" x2="135.000000" y2="245.000000" gradientUnits="userSpaceOnUse">
			<stop stop-color="#39463F"/>
			<stop offset="1.000000" stop-color="#101612"/>
		</linearGradient>
	</defs>
	<path id="foods include fresh produce, meats as well as processed" d="M14.3049 199.418L15.8529 199.418L15.8529 207.5L16.8789 207.5L16.8789 199.418L19.1829 199.418L19.1829 198.5L16.8789 198.5L16.8789 197.654C16.8789 195.656 17.2209 195.314 19.1829 195.314L19.1829 194.36L19.0929 194.36C16.5729 194.36 15.8529 195.044 15.8529 197.636L15.8529 198.5L14.3049 198.5L14.3049 199.418ZM24.7749 207.68C27.3669 207.68 29.4549 205.628 29.4549 203C29.4549 200.372 27.3669 198.32 24.7749 198.32C22.1829 198.32 20.1129 200.372 20.1129 203C20.1129 205.628 22.1829 207.68 24.7749 207.68ZM24.7749 206.744C22.7409 206.744 21.1389 205.07 21.1389 203C21.1389 200.93 22.7409 199.256 24.7749 199.256C26.8089 199.256 28.4109 200.93 28.4109 203C28.4109 205.07 26.8089 206.744 24.7749 206.744ZM36.0073 207.68C38.5993 207.68 40.6873 205.628 40.6873 203C40.6873 200.372 38.5993 198.32 36.0073 198.32C33.4153 198.32 31.3453 200.372 31.3453 203C31.3453 205.628 33.4153 207.68 36.0073 207.68ZM36.0073 206.744C33.9733 206.744 32.3713 205.07 32.3713 203C32.3713 200.93 33.9733 199.256 36.0073 199.256C38.0413 199.256 39.6433 200.93 39.6433 203C39.6433 205.07 38.0413 206.744 36.0073 206.744ZM47.2037 207.68C48.5717 207.68 50.1017 206.942 50.8397 205.628L50.8397 207.5L51.8297 207.5L51.8297 194.36L50.8397 194.36L50.8397 200.372C50.1017 199.058 48.5717 198.32 47.2037 198.32C44.5577 198.32 42.5777 200.426 42.5777 203C42.5777 205.574 44.5757 207.68 47.2037 207.68ZM47.2577 206.744C45.2237 206.744 43.6037 205.07 43.6037 203C43.6037 200.93 45.2237 199.256 47.2577 199.256C49.3457 199.256 50.9477 200.948 50.9477 203C50.9477 205.07 49.3457 206.744 47.2577 206.744ZM57.2611 207.68C59.6191 207.68 60.6271 206.204 60.6271 204.98C60.6271 203.252 59.0611 202.802 57.6031 202.442C56.3071 202.118 55.1011 201.848 55.1011 200.786C55.1011 199.886 55.8751 199.184 57.2431 199.184C58.2871 199.184 59.0791 199.562 59.6911 200.264L60.4651 199.634C59.7271 198.788 58.5391 198.302 57.2431 198.302C55.2991 198.302 54.0931 199.472 54.0931 200.804C54.0931 202.478 55.6051 202.946 57.0451 203.306C58.3591 203.63 59.6191 203.864 59.6191 204.98C59.6191 205.934 58.8451 206.78 57.2971 206.78C56.0731 206.78 55.0831 206.168 54.4711 205.34L53.6611 205.988C54.4171 206.996 55.7131 207.68 57.2611 207.68ZM67.3717 207.5L68.3978 207.5L68.3978 198.5L67.3717 198.5L67.3717 207.5ZM67.3717 196.97L68.3978 196.97L68.3978 194.36L67.3717 194.36L67.3717 196.97ZM70.9928 207.5L72.0008 207.5L72.0008 202.478C72.0008 200.642 73.3868 199.256 75.2048 199.256C77.1668 199.256 78.2828 200.534 78.2828 202.46L78.2828 207.5L79.3088 207.5L79.3088 202.46C79.3088 199.886 77.7428 198.32 75.3308 198.32C73.8008 198.32 72.5948 199.094 71.9828 200.192L71.9828 198.5L70.9928 198.5L70.9928 207.5ZM86.159 207.68C88.229 207.68 89.741 206.51 90.443 204.854L89.489 204.458C88.931 205.772 87.779 206.744 86.177 206.744C84.071 206.744 82.469 205.07 82.469 203C82.469 200.93 84.053 199.256 86.123 199.256C87.671 199.256 88.859 200.102 89.453 201.452L90.389 201.056C89.705 199.436 88.103 198.32 86.141 198.32C83.513 198.32 81.443 200.336 81.443 203C81.443 205.592 83.459 207.68 86.159 207.68ZM92.5089 207.5L93.5529 207.5L93.5529 194.36L92.5089 194.36L92.5089 207.5ZM100.108 207.68C101.584 207.68 102.79 206.942 103.402 205.844L103.402 207.5L104.41 207.5L104.41 198.5L103.384 198.5L103.384 203.522C103.384 205.358 101.998 206.744 100.198 206.744C98.2356 206.744 97.1196 205.466 97.1196 203.54L97.1196 198.5L96.0936 198.5L96.0936 203.54C96.0936 206.114 97.5696 207.68 100.108 207.68ZM111.206 207.68C112.574 207.68 114.104 206.942 114.842 205.628L114.842 207.5L115.832 207.5L115.832 194.36L114.842 194.36L114.842 200.372C114.104 199.058 112.574 198.32 111.206 198.32C108.56 198.32 106.58 200.426 106.58 203C106.58 205.574 108.578 207.68 111.206 207.68ZM111.26 206.744C109.226 206.744 107.606 205.07 107.606 203C107.606 200.93 109.226 199.256 111.26 199.256C113.348 199.256 114.95 200.948 114.95 203C114.95 205.07 113.348 206.744 111.26 206.744ZM122.757 207.68C124.845 207.68 126.231 206.672 127.041 204.944L126.141 204.512C125.547 205.898 124.413 206.762 122.739 206.762C120.615 206.762 119.139 205.322 118.995 203.342L127.293 203.342L127.293 202.892C127.293 200.192 125.313 198.32 122.685 198.32C120.003 198.32 118.023 200.39 118.023 203.054C118.023 205.682 119.841 207.68 122.757 207.68ZM122.685 199.238C124.683 199.238 126.033 200.516 126.231 202.406L119.031 202.406C119.319 200.588 120.795 199.238 122.685 199.238ZM133.362 199.418L134.91 199.418L134.91 207.5L135.936 207.5L135.936 199.418L138.24 199.418L138.24 198.5L135.936 198.5L135.936 197.654C135.936 195.656 136.278 195.314 138.24 195.314L138.24 194.36L138.15 194.36C135.63 194.36 134.91 195.044 134.91 197.636L134.91 198.5L133.362 198.5L133.362 199.418ZM140.215 207.5L141.242 207.5L141.242 202.802C141.242 200.642 142.249 199.454 144.158 199.454L145.003 199.454L145.003 198.5L144.158 198.5C142.771 198.5 141.745 199.166 141.223 200.246L141.223 198.5L140.215 198.5L140.215 207.5ZM150.741 207.68C152.829 207.68 154.215 206.672 155.025 204.944L154.125 204.512C153.531 205.898 152.397 206.762 150.723 206.762C148.599 206.762 147.123 205.322 146.979 203.342L155.277 203.342L155.277 202.892C155.277 200.192 153.297 198.32 150.669 198.32C147.987 198.32 146.007 200.39 146.007 203.054C146.007 205.682 147.825 207.68 150.741 207.68ZM150.669 199.238C152.667 199.238 154.017 200.516 154.215 202.406L147.015 202.406C147.303 200.588 148.779 199.238 150.669 199.238ZM160.322 207.68C162.68 207.68 163.688 206.204 163.688 204.98C163.688 203.252 162.122 202.802 160.664 202.442C159.368 202.118 158.162 201.848 158.162 200.786C158.162 199.886 158.936 199.184 160.304 199.184C161.348 199.184 162.14 199.562 162.752 200.264L163.526 199.634C162.788 198.788 161.6 198.302 160.304 198.302C158.36 198.302 157.154 199.472 157.154 200.804C157.154 202.478 158.666 202.946 160.106 203.306C161.42 203.63 162.68 203.864 162.68 204.98C162.68 205.934 161.906 206.78 160.358 206.78C159.134 206.78 158.144 206.168 157.532 205.34L156.722 205.988C157.478 206.996 158.774 207.68 160.322 207.68ZM165.88 207.5L166.906 207.5L166.906 202.478C166.906 200.642 168.292 199.256 170.092 199.256C172.072 199.256 173.17 200.534 173.17 202.46L173.17 207.5L174.214 207.5L174.214 202.46C174.214 199.886 172.63 198.32 170.236 198.32C168.724 198.32 167.518 199.076 166.888 200.156L166.888 194.36L165.88 194.36L165.88 207.5ZM185.904 207.68C188.532 207.68 190.53 205.574 190.53 203C190.53 200.426 188.55 198.32 185.904 198.32C184.5 198.32 182.97 199.076 182.25 200.39L182.25 198.5L181.278 198.5L181.278 211.64L182.268 211.64L182.268 205.7C182.97 206.996 184.428 207.68 185.904 207.68ZM185.85 206.744C183.762 206.744 182.16 205.07 182.16 203C182.16 200.948 183.762 199.256 185.85 199.256C187.884 199.256 189.486 200.93 189.486 203C189.486 205.07 187.884 206.744 185.85 206.744ZM192.704 207.5L193.73 207.5L193.73 202.802C193.73 200.642 194.738 199.454 196.646 199.454L197.492 199.454L197.492 198.5L196.646 198.5C195.26 198.5 194.234 199.166 193.712 200.246L193.712 198.5L192.704 198.5L192.704 207.5ZM203.158 207.68C205.75 207.68 207.838 205.628 207.838 203C207.838 200.372 205.75 198.32 203.158 198.32C200.566 198.32 198.496 200.372 198.496 203C198.496 205.628 200.566 207.68 203.158 207.68ZM203.158 206.744C201.124 206.744 199.522 205.07 199.522 203C199.522 200.93 201.124 199.256 203.158 199.256C205.192 199.256 206.794 200.93 206.794 203C206.794 205.07 205.192 206.744 203.158 206.744ZM214.354 207.68C215.722 207.68 217.252 206.942 217.99 205.628L217.99 207.5L218.98 207.5L218.98 194.36L217.99 194.36L217.99 200.372C217.252 199.058 215.722 198.32 214.354 198.32C211.708 198.32 209.728 200.426 209.728 203C209.728 205.574 211.726 207.68 214.354 207.68ZM214.408 206.744C212.374 206.744 210.754 205.07 210.754 203C210.754 200.93 212.374 199.256 214.408 199.256C216.496 199.256 218.098 200.948 218.098 203C218.098 205.07 216.496 206.744 214.408 206.744ZM225.527 207.68C227.003 207.68 228.209 206.942 228.821 205.844L228.821 207.5L229.829 207.5L229.829 198.5L228.803 198.5L228.803 203.522C228.803 205.358 227.417 206.744 225.617 206.744C223.655 206.744 222.539 205.466 222.539 203.54L222.539 198.5L221.513 198.5L221.513 203.54C221.513 206.114 222.989 207.68 225.527 207.68ZM236.716 207.68C238.786 207.68 240.298 206.51 241 204.854L240.046 204.458C239.488 205.772 238.336 206.744 236.734 206.744C234.628 206.744 233.026 205.07 233.026 203C233.026 200.93 234.61 199.256 236.68 199.256C238.228 199.256 239.416 200.102 240.01 201.452L240.946 201.056C240.262 199.436 238.66 198.32 236.698 198.32C234.07 198.32 232 200.336 232 203C232 205.592 234.016 207.68 236.716 207.68ZM247.404 207.68C249.492 207.68 250.878 206.672 251.688 204.944L250.788 204.512C250.194 205.898 249.06 206.762 247.386 206.762C245.262 206.762 243.786 205.322 243.642 203.342L251.94 203.342L251.94 202.892C251.94 200.192 249.96 198.32 247.332 198.32C244.65 198.32 242.67 200.39 242.67 203.054C242.67 205.682 244.488 207.68 247.404 207.68ZM247.332 199.238C249.33 199.238 250.68 200.516 250.878 202.406L243.678 202.406C243.966 200.588 245.442 199.238 247.332 199.238ZM253.42 209.606L254.248 209.606L255.328 205.934L254.194 205.934L253.42 209.606ZM18.1882 235.5L19.1962 235.5L19.1962 230.406C19.1962 228.48 20.5102 227.238 22.2742 227.238C24.0562 227.238 25.1722 228.354 25.1722 230.046L25.1722 235.5L26.1982 235.5L26.1982 230.244C26.1982 228.39 27.5302 227.238 29.2222 227.238C31.0762 227.238 32.2282 228.48 32.2282 230.208L32.2282 235.5L33.2542 235.5L33.2542 230.28C33.2542 227.922 31.7602 226.32 29.2402 226.32C27.5842 226.32 26.2882 227.184 25.7482 228.444C25.2802 227.166 24.1102 226.32 22.3462 226.32C20.8702 226.32 19.7542 227.022 19.1782 228.084L19.1782 226.5L18.1882 226.5L18.1882 235.5ZM40.1223 235.68C42.2103 235.68 43.5963 234.672 44.4063 232.944L43.5063 232.512C42.9123 233.898 41.7783 234.762 40.1043 234.762C37.9803 234.762 36.5043 233.322 36.3603 231.342L44.6583 231.342L44.6583 230.892C44.6583 228.192 42.6783 226.32 40.0503 226.32C37.3683 226.32 35.3883 228.39 35.3883 231.054C35.3883 233.682 37.2063 235.68 40.1223 235.68ZM40.0503 227.238C42.0483 227.238 43.3983 228.516 43.5963 230.406L36.3963 230.406C36.6843 228.588 38.1603 227.238 40.0503 227.238ZM51.0885 235.68C52.4565 235.68 53.9865 234.942 54.7245 233.628L54.7245 235.5L55.7505 235.5L55.7505 226.5L54.7245 226.5L54.7245 228.372C53.9865 227.058 52.4565 226.32 51.0885 226.32C48.4425 226.32 46.4625 228.426 46.4625 231C46.4625 233.574 48.4605 235.68 51.0885 235.68ZM51.1425 234.744C49.1085 234.744 47.4885 233.07 47.4885 231C47.4885 228.93 49.1085 227.256 51.1425 227.256C53.2305 227.256 54.8325 228.948 54.8325 231C54.8325 233.07 53.2305 234.744 51.1425 234.744ZM57.5994 227.418L59.1474 227.418L59.1474 232.224C59.1474 234.816 59.8314 235.5 62.3334 235.5L62.4774 235.5L62.4774 234.546C60.5874 234.546 60.1914 234.204 60.1914 232.206L60.1914 227.418L62.4774 227.418L62.4774 226.5L60.1914 226.5L60.1914 223.782L59.1474 224.394L59.1474 226.5L57.5994 226.5L57.5994 227.418ZM67.5619 235.68C69.9199 235.68 70.9279 234.204 70.9279 232.98C70.9279 231.252 69.3619 230.802 67.9039 230.442C66.6079 230.118 65.4019 229.848 65.4019 228.786C65.4019 227.886 66.1759 227.184 67.5439 227.184C68.5879 227.184 69.3799 227.562 69.9919 228.264L70.7659 227.634C70.0279 226.788 68.8399 226.302 67.5439 226.302C65.5999 226.302 64.3939 227.472 64.3939 228.804C64.3939 230.478 65.9059 230.946 67.3459 231.306C68.6599 231.63 69.9199 231.864 69.9199 232.98C69.9199 233.934 69.1459 234.78 67.5979 234.78C66.3739 234.78 65.3839 234.168 64.7719 233.34L63.9619 233.988C64.7179 234.996 66.0139 235.68 67.5619 235.68ZM81.9205 235.68C83.2885 235.68 84.8185 234.942 85.5565 233.628L85.5565 235.5L86.5825 235.5L86.5825 226.5L85.5565 226.5L85.5565 228.372C84.8185 227.058 83.2885 226.32 81.9205 226.32C79.2745 226.32 77.2945 228.426 77.2945 231C77.2945 233.574 79.2925 235.68 81.9205 235.68ZM81.9745 234.744C79.9405 234.744 78.3205 233.07 78.3205 231C78.3205 228.93 79.9405 227.256 81.9745 227.256C84.0625 227.256 85.6645 228.948 85.6645 231C85.6645 233.07 84.0625 234.744 81.9745 234.744ZM91.9955 235.68C94.3535 235.68 95.3615 234.204 95.3615 232.98C95.3615 231.252 93.7955 230.802 92.3375 230.442C91.0415 230.118 89.8355 229.848 89.8355 228.786C89.8355 227.886 90.6095 227.184 91.9775 227.184C93.0215 227.184 93.8135 227.562 94.4255 228.264L95.1995 227.634C94.4615 226.788 93.2735 226.302 91.9775 226.302C90.0335 226.302 88.8275 227.472 88.8275 228.804C88.8275 230.478 90.3395 230.946 91.7795 231.306C93.0935 231.63 94.3535 231.864 94.3535 232.98C94.3535 233.934 93.5795 234.78 92.0315 234.78C90.8075 234.78 89.8175 234.168 89.2055 233.34L88.3955 233.988C89.1515 234.996 90.4475 235.68 91.9955 235.68ZM104.446 235.5L105.436 235.5L108.406 227.958L111.358 235.5L112.33 235.5L115.336 226.5L114.256 226.5L111.808 234.006L108.91 226.5L107.938 226.5L105.004 233.988L102.628 226.5L101.53 226.5L104.446 235.5ZM121.351 235.68C123.439 235.68 124.825 234.672 125.635 232.944L124.735 232.512C124.141 233.898 123.007 234.762 121.333 234.762C119.209 234.762 117.733 233.322 117.589 231.342L125.887 231.342L125.887 230.892C125.887 228.192 123.907 226.32 121.279 226.32C118.597 226.32 116.617 228.39 116.617 231.054C116.617 233.682 118.435 235.68 121.351 235.68ZM121.279 227.238C123.277 227.238 124.627 228.516 124.825 230.406L117.625 230.406C117.913 228.588 119.389 227.238 121.279 227.238ZM128.087 235.5L129.131 235.5L129.131 222.36L128.087 222.36L128.087 235.5ZM131.849 235.5L132.893 235.5L132.893 222.36L131.849 222.36L131.849 235.5ZM144.288 235.68C145.656 235.68 147.186 234.942 147.924 233.628L147.924 235.5L148.95 235.5L148.95 226.5L147.924 226.5L147.924 228.372C147.186 227.058 145.656 226.32 144.288 226.32C141.642 226.32 139.662 228.426 139.662 231C139.662 233.574 141.66 235.68 144.288 235.68ZM144.342 234.744C142.308 234.744 140.688 233.07 140.688 231C140.688 228.93 142.308 227.256 144.342 227.256C146.43 227.256 148.032 228.948 148.032 231C148.032 233.07 146.43 234.744 144.342 234.744ZM154.363 235.68C156.721 235.68 157.729 234.204 157.729 232.98C157.729 231.252 156.163 230.802 154.705 230.442C153.409 230.118 152.203 229.848 152.203 228.786C152.203 227.886 152.977 227.184 154.345 227.184C155.389 227.184 156.181 227.562 156.793 228.264L157.567 227.634C156.829 226.788 155.641 226.302 154.345 226.302C152.401 226.302 151.195 227.472 151.195 228.804C151.195 230.478 152.707 230.946 154.147 231.306C155.461 231.63 156.721 231.864 156.721 232.98C156.721 233.934 155.947 234.78 154.399 234.78C153.175 234.78 152.185 234.168 151.573 233.34L150.763 233.988C151.519 234.996 152.815 235.68 154.363 235.68ZM169.099 235.68C171.727 235.68 173.725 233.574 173.725 231C173.725 228.426 171.745 226.32 169.099 226.32C167.695 226.32 166.165 227.076 165.445 228.39L165.445 226.5L164.473 226.5L164.473 239.64L165.463 239.64L165.463 233.7C166.165 234.996 167.623 235.68 169.099 235.68ZM169.045 234.744C166.957 234.744 165.355 233.07 165.355 231C165.355 228.948 166.957 227.256 169.045 227.256C171.079 227.256 172.681 228.93 172.681 231C172.681 233.07 171.079 234.744 169.045 234.744ZM175.899 235.5L176.925 235.5L176.925 230.802C176.925 228.642 177.933 227.454 179.841 227.454L180.687 227.454L180.687 226.5L179.841 226.5C178.455 226.5 177.429 227.166 176.907 228.246L176.907 226.5L175.899 226.5L175.899 235.5ZM186.353 235.68C188.945 235.68 191.033 233.628 191.033 231C191.033 228.372 188.945 226.32 186.353 226.32C183.761 226.32 181.691 228.372 181.691 231C181.691 233.628 183.761 235.68 186.353 235.68ZM186.353 234.744C184.319 234.744 182.717 233.07 182.717 231C182.717 228.93 184.319 227.256 186.353 227.256C188.387 227.256 189.989 228.93 189.989 231C189.989 233.07 188.387 234.744 186.353 234.744ZM197.639 235.68C199.709 235.68 201.221 234.51 201.923 232.854L200.969 232.458C200.411 233.772 199.259 234.744 197.657 234.744C195.551 234.744 193.949 233.07 193.949 231C193.949 228.93 195.533 227.256 197.603 227.256C199.151 227.256 200.339 228.102 200.933 229.452L201.869 229.056C201.185 227.436 199.583 226.32 197.621 226.32C194.993 226.32 192.923 228.336 192.923 231C192.923 233.592 194.939 235.68 197.639 235.68ZM208.327 235.68C210.415 235.68 211.801 234.672 212.611 232.944L211.711 232.512C211.117 233.898 209.983 234.762 208.309 234.762C206.185 234.762 204.709 233.322 204.565 231.342L212.863 231.342L212.863 230.892C212.863 228.192 210.883 226.32 208.255 226.32C205.573 226.32 203.593 228.39 203.593 231.054C203.593 233.682 205.411 235.68 208.327 235.68ZM208.255 227.238C210.253 227.238 211.603 228.516 211.801 230.406L204.601 230.406C204.889 228.588 206.365 227.238 208.255 227.238ZM217.908 235.68C220.266 235.68 221.274 234.204 221.274 232.98C221.274 231.252 219.708 230.802 218.25 230.442C216.954 230.118 215.748 229.848 215.748 228.786C215.748 227.886 216.522 227.184 217.89 227.184C218.934 227.184 219.726 227.562 220.338 228.264L221.112 227.634C220.374 226.788 219.186 226.302 217.89 226.302C215.946 226.302 214.74 227.472 214.74 228.804C214.74 230.478 216.252 230.946 217.692 231.306C219.006 231.63 220.266 231.864 220.266 232.98C220.266 233.934 219.492 234.78 217.944 234.78C216.72 234.78 215.73 234.168 215.118 233.34L214.308 233.988C215.064 234.996 216.36 235.68 217.908 235.68ZM226.31 235.68C228.668 235.68 229.676 234.204 229.676 232.98C229.676 231.252 228.11 230.802 226.652 230.442C225.356 230.118 224.15 229.848 224.15 228.786C224.15 227.886 224.924 227.184 226.292 227.184C227.336 227.184 228.128 227.562 228.74 228.264L229.514 227.634C228.776 226.788 227.588 226.302 226.292 226.302C224.348 226.302 223.142 227.472 223.142 228.804C223.142 230.478 224.654 230.946 226.094 231.306C227.408 231.63 228.668 231.864 228.668 232.98C228.668 233.934 227.894 234.78 226.346 234.78C225.122 234.78 224.132 234.168 223.52 233.34L222.71 233.988C223.466 234.996 224.762 235.68 226.31 235.68ZM236.206 235.68C238.294 235.68 239.68 234.672 240.49 232.944L239.59 232.512C238.996 233.898 237.862 234.762 236.188 234.762C234.064 234.762 232.588 233.322 232.444 231.342L240.742 231.342L240.742 230.892C240.742 228.192 238.762 226.32 236.134 226.32C233.452 226.32 231.472 228.39 231.472 231.054C231.472 233.682 233.29 235.68 236.206 235.68ZM236.134 227.238C238.132 227.238 239.482 228.516 239.68 230.406L232.48 230.406C232.768 228.588 234.244 227.238 236.134 227.238ZM247.172 235.68C248.54 235.68 250.07 234.942 250.808 233.628L250.808 235.5L251.798 235.5L251.798 222.36L250.808 222.36L250.808 228.372C250.07 227.058 248.54 226.32 247.172 226.32C244.526 226.32 242.546 228.426 242.546 231C242.546 233.574 244.544 235.68 247.172 235.68ZM247.226 234.744C245.192 234.744 243.572 233.07 243.572 231C243.572 228.93 245.192 227.256 247.226 227.256C249.314 227.256 250.916 228.948 250.916 231C250.916 233.07 249.314 234.744 247.226 234.744Z" fill="url(#paint_linear_711_163_0)" fill-opacity="1.000000" fill-rule="evenodd"/>
	<path id="Easy to order" d="M50.941 160.5L63.205 160.5L63.205 157.588L53.993 157.588L53.993 151.68L63.205 151.68L63.205 148.796L53.993 148.796L53.993 142.944L63.205 142.944L63.205 140.06L50.941 140.06L50.941 160.5ZM72.4181 160.78C74.2661 160.78 76.0301 159.94 77.0941 158.568L77.0941 160.5L80.0901 160.5L80.0901 146.5L77.0941 146.5L77.0941 148.32C76.0581 147.032 74.2941 146.22 72.4461 146.22C68.7781 146.22 65.4461 149.02 65.4461 153.5C65.4461 157.952 68.8621 160.78 72.4181 160.78ZM72.8381 158.036C70.3461 158.036 68.4141 156.02 68.4141 153.472C68.4141 150.924 70.3461 148.936 72.8381 148.936C75.3861 148.936 77.2621 150.98 77.2621 153.472C77.2621 155.992 75.3861 158.036 72.8381 158.036ZM88.1093 160.78C92.0853 160.808 93.7653 158.204 93.7653 156.272C93.7653 153.36 91.1613 152.604 88.8653 152.1C86.8493 151.652 85.5613 151.372 85.5613 150.364C85.5613 149.468 86.3733 148.684 87.9693 148.684C89.3693 148.684 90.4613 149.3 91.1053 150.28L93.5973 148.908C92.5053 147.228 90.5733 146.192 87.9693 146.192C84.6653 146.164 82.5653 148.208 82.5653 150.42C82.5653 153.304 85.0293 154.088 87.4093 154.592C89.1733 154.956 90.7973 155.208 90.7973 156.328C90.7973 157.308 89.9293 158.176 88.2493 158.176C86.6533 158.176 85.4213 157.42 84.6653 156.132L81.9773 157.532C83.1533 159.604 85.1973 160.78 88.1093 160.78ZM97.4407 166.968L100.521 166.968L108.977 146.5L105.813 146.5L101.949 156.216L97.8607 146.5L94.6407 146.5L100.437 159.772L97.4407 166.968ZM117.397 149.188L119.777 149.188L119.777 154.788C119.777 159.156 121.065 160.5 125.321 160.5L125.769 160.5L125.769 157.672C123.193 157.672 122.801 157.28 122.801 154.76L122.801 149.188L125.769 149.188L125.769 146.5L122.801 146.5L122.801 141.544L119.777 143.196L119.777 146.5L117.397 146.5L117.397 149.188ZM134.495 160.78C138.527 160.78 141.775 157.56 141.775 153.5C141.775 149.412 138.527 146.22 134.495 146.22C130.463 146.22 127.243 149.412 127.243 153.5C127.243 157.56 130.463 160.78 134.495 160.78ZM134.495 157.98C132.087 157.98 130.211 155.964 130.211 153.5C130.211 151.036 132.087 149.02 134.495 149.02C136.903 149.02 138.807 151.036 138.807 153.5C138.807 155.964 136.903 157.98 134.495 157.98ZM157.874 160.78C161.906 160.78 165.154 157.56 165.154 153.5C165.154 149.412 161.906 146.22 157.874 146.22C153.842 146.22 150.622 149.412 150.622 153.5C150.622 157.56 153.842 160.78 157.874 160.78ZM157.874 157.98C155.466 157.98 153.59 155.964 153.59 153.5C153.59 151.036 155.466 149.02 157.874 149.02C160.282 149.02 162.186 151.036 162.186 153.5C162.186 155.964 160.282 157.98 157.874 157.98ZM167.532 160.5L170.556 160.5L170.556 153.556C170.556 150.644 171.508 149.356 173.944 149.356L176.044 149.356L176.044 146.5L174.392 146.5C172.544 146.5 171.256 147.284 170.528 148.656L170.528 146.5L167.532 146.5L167.532 160.5ZM184.227 160.78C186.075 160.78 187.839 159.94 188.903 158.568L188.903 160.5L191.871 160.5L191.871 140.06L188.903 140.06L188.903 148.32C187.867 147.032 186.103 146.22 184.255 146.22C180.587 146.22 177.255 149.02 177.255 153.5C177.255 157.952 180.671 160.78 184.227 160.78ZM184.647 158.036C182.155 158.036 180.223 156.02 180.223 153.472C180.223 150.924 182.155 148.936 184.647 148.936C187.195 148.936 189.071 150.98 189.071 153.472C189.071 155.992 187.195 158.036 184.647 158.036ZM201.655 160.78C204.763 160.78 206.975 159.268 208.207 156.972L205.743 155.6C205.015 157.112 203.559 158.12 201.655 158.12C199.219 158.12 197.539 156.692 197.147 154.536L208.739 154.536L208.739 153.36C208.739 149.216 205.687 146.22 201.543 146.22C197.427 146.22 194.263 149.44 194.263 153.556C194.263 157.616 197.231 160.78 201.655 160.78ZM201.543 148.852C203.699 148.852 205.239 149.972 205.687 151.988L197.287 151.988C197.847 150.14 199.471 148.852 201.543 148.852ZM211.145 160.5L214.169 160.5L214.169 153.556C214.169 150.644 215.121 149.356 217.557 149.356L219.657 149.356L219.657 146.5L218.005 146.5C216.157 146.5 214.869 147.284 214.141 148.656L214.141 146.5L211.145 146.5L211.145 160.5Z" fill="#181D19" fill-opacity="1.000000" fill-rule="evenodd"/>
	<rect id="Icon" width="100.000000" height="100.000000" transform="translate(85.000000 0.000000)" fill="#FFFFFF" fill-opacity="0"/>
	<g clip-path="url(#clip711_165)">
		<path id="Vector" d="M169.374 4.02423L169.374 95.976C169.374 98.1992 167.573 100 165.35 100L97.6535 100C95.4302 100 93.6293 98.1994 93.6293 95.976L93.6293 4.02423C93.6293 1.80078 95.4301 0 97.6535 0L114.305 0L114.305 5.82501C114.305 6.93768 115.207 7.8371 116.318 7.8371L146.887 7.8371C147.998 7.8371 148.899 6.93768 148.899 5.82501L148.899 0L165.35 0C167.573 0 169.374 1.80078 169.374 4.02423Z" fill="#FEB618" fill-opacity="1.000000" fill-rule="nonzero"/>
		<path id="Vector" d="M169.375 4.02423L169.375 95.976C169.375 98.1992 167.572 100 165.351 100L161.389 100C163.61 100 165.413 98.1994 165.413 95.976L165.413 4.02423C165.413 1.80078 163.61 0 161.389 0L165.351 0C167.572 0 169.375 1.80078 169.375 4.02423Z" fill="#FB9927" fill-opacity="1.000000" fill-rule="nonzero"/>
		<path id="Vector" d="M169.375 22.9194L169.375 45.6678C167.648 46.5431 165.697 47.036 163.628 47.036C156.592 47.036 150.886 41.3298 150.886 34.2936C150.886 27.2554 156.592 21.5513 163.628 21.5513C165.697 21.5513 167.648 22.0443 169.375 22.9194Z" fill="#FB9927" fill-opacity="1.000000" fill-rule="nonzero"/>
		<path id="Vector" d="M162.838 7.96985L162.838 91.8913C162.838 92.9335 161.993 93.7786 160.949 93.7786L102.054 93.7786C101.01 93.7786 100.162 92.9335 100.162 91.8913L100.162 7.96985C100.162 6.92761 101.01 6.08057 102.054 6.08057L114.321 6.08057C114.446 7.07257 115.293 7.83722 116.317 7.83722L146.887 7.83722C147.911 7.83722 148.758 7.07257 148.883 6.08057L160.949 6.08057C161.993 6.08057 162.838 6.92761 162.838 7.96985Z" fill="#F8F3F1" fill-opacity="1.000000" fill-rule="nonzero"/>
		<path id="Vector" d="M111.884 6.08057L111.884 11.644C111.884 12.7548 112.785 13.6561 113.896 13.6561L115.039 13.6561L115.039 16.3522C115.039 18.9298 117.135 21.0262 119.713 21.0262L143.29 21.0262C145.868 21.0262 147.964 18.9298 147.964 16.3522L147.964 13.6559L149.107 13.6559C150.218 13.6559 151.119 12.7546 151.119 11.6439L151.119 6.08057L111.884 6.08057ZM144.946 16.3522C144.946 17.2657 144.204 18.0081 143.29 18.0081L119.713 18.0081C118.799 18.0081 118.057 17.2657 118.057 16.3522L118.057 13.6559L144.946 13.6559L144.946 16.3522Z" fill="#EFE2DD" fill-opacity="1.000000" fill-rule="nonzero"/>
		<path id="Vector" d="M162.84 7.96954L162.84 91.8904C162.84 92.933 161.994 93.7793 160.951 93.7793L156.578 93.7793C157.621 93.7793 158.467 92.933 158.467 91.8904L158.467 7.96954C158.467 6.927 157.621 6.08069 156.578 6.08069L160.951 6.08069C161.994 6.08069 162.84 6.92676 162.84 7.96954Z" fill="#EFE2DD" fill-opacity="1.000000" fill-rule="nonzero"/>
		<path id="Vector" d="M155.868 28.235L107.135 28.235C106.302 28.235 105.626 27.5594 105.626 26.726C105.626 25.8926 106.302 25.217 107.135 25.217L155.868 25.217C156.701 25.217 157.377 25.8926 157.377 26.726C157.377 27.5594 156.701 28.235 155.868 28.235Z" fill="#EFE2DD" fill-opacity="1.000000" fill-rule="nonzero"/>
		<path id="Vector" d="M108.404 86.569C107.606 86.569 106.94 85.944 106.898 85.1385C106.854 84.3063 107.494 83.5964 108.326 83.553C109.423 83.4958 110.503 83.2364 111.518 82.812C111.479 82.4149 111.49 82.0052 111.553 81.5911C111.933 79.118 113.145 76.7928 114.968 75.0435C116.702 73.379 118.335 73.6844 119.285 74.5259C120.158 75.2991 120.489 76.5288 120.128 77.6587C119.418 79.8799 118.068 81.8403 116.323 83.3536C116.767 83.1851 117.155 82.9413 117.293 82.8503C118.06 82.3427 119.205 81.7165 120.298 82.1384C120.596 82.2534 121.087 82.5311 121.38 83.1657C121.493 83.1345 121.63 83.0843 121.772 83.0104C122.611 82.5731 123.414 82.0534 124.159 81.4659C124.855 80.9169 125.779 80.8229 126.569 81.221C127.222 81.5501 127.661 82.1497 127.785 82.848C128.483 82.4818 129.136 82.0342 129.733 81.513C130.54 80.8077 131.739 80.7626 132.585 81.4059C135.057 83.2858 138.931 82.9417 142.368 82.4716C143.195 82.3583 143.955 82.9364 144.068 83.7622C144.181 84.588 143.603 85.3489 142.777 85.4618C138.938 85.9874 134.597 86.3507 131.263 84.1657C130.422 84.8364 129.503 85.3999 128.524 85.845C128.24 85.9741 127.576 86.2765 126.799 86.1266C125.981 85.9696 125.342 85.3835 125.023 84.5731C124.426 84.9811 123.805 85.3536 123.166 85.6866C122.747 85.905 121.28 86.5724 119.979 85.9968C119.615 85.8358 119.308 85.5966 119.07 85.2946C119.034 85.3171 118.997 85.3411 118.958 85.3671C116.655 86.8911 114.336 86.9325 112.841 85.5401C111.47 86.1294 109.997 86.4882 108.483 86.5671C108.457 86.5685 108.43 86.569 108.404 86.569ZM124.803 83.2386C124.803 83.2403 124.803 83.2421 124.803 83.2438C124.803 83.2415 124.803 83.2397 124.803 83.2386ZM117.098 77.1827C117.085 77.1948 117.071 77.2075 117.057 77.2206C116.099 78.1407 115.369 79.2747 114.927 80.5087C115.872 79.554 116.626 78.4224 117.098 77.1827Z" fill="#EFE2DD" fill-opacity="1.000000" fill-rule="nonzero"/>
		<path id="Vector" d="M123.31 48.4274L123.106 48.4274C122.273 48.4274 121.597 47.7518 121.597 46.9184C121.597 46.085 122.273 45.4094 123.106 45.4094L123.31 45.4094C124.143 45.4094 124.819 46.085 124.819 46.9184C124.819 47.7518 124.143 48.4274 123.31 48.4274Z" fill="#EFE2DD" fill-opacity="1.000000" fill-rule="nonzero"/>
		<path id="Vector" d="M128.087 48.4274L127.883 48.4274C127.049 48.4274 126.374 47.7518 126.374 46.9184C126.374 46.085 127.049 45.4094 127.883 45.4094L128.087 45.4094C128.92 45.4094 129.596 46.085 129.596 46.9184C129.596 47.7518 128.92 48.4274 128.087 48.4274Z" fill="#EFE2DD" fill-opacity="1.000000" fill-rule="nonzero"/>
		<path id="Vector" d="M132.863 48.4274L132.659 48.4274C131.826 48.4274 131.15 47.7518 131.15 46.9184C131.15 46.085 131.826 45.4094 132.659 45.4094L132.863 45.4094C133.697 45.4094 134.372 46.085 134.372 46.9184C134.372 47.7518 133.697 48.4274 132.863 48.4274Z" fill="#EFE2DD" fill-opacity="1.000000" fill-rule="nonzero"/>
		<path id="Vector" d="M137.64 48.4274L137.436 48.4274C136.603 48.4274 135.927 47.7518 135.927 46.9184C135.927 46.085 136.603 45.4094 137.436 45.4094L137.64 45.4094C138.473 45.4094 139.149 46.085 139.149 46.9184C139.149 47.7518 138.473 48.4274 137.64 48.4274Z" fill="#EFE2DD" fill-opacity="1.000000" fill-rule="nonzero"/>
		<path id="Vector" d="M155.423 42.5089L122.559 42.5089C121.726 42.5089 121.05 41.8334 121.05 40.9999C121.05 40.1666 121.726 39.491 122.559 39.491L155.423 39.491C156.257 39.491 156.932 40.1666 156.932 40.9999C156.933 41.8334 156.257 42.5089 155.423 42.5089Z" fill="#EFE2DD" fill-opacity="1.000000" fill-rule="nonzero"/>
		<path id="Vector" d="M131.417 36.8423L122.559 36.8423C121.726 36.8423 121.05 36.1667 121.05 35.3333C121.05 34.4999 121.726 33.8243 122.559 33.8243L131.417 33.8243C132.25 33.8243 132.926 34.4999 132.926 35.3333C132.926 36.1667 132.25 36.8423 131.417 36.8423Z" fill="#EFE2DD" fill-opacity="1.000000" fill-rule="nonzero"/>
		<path id="Vector" d="M123.31 68.5905L123.106 68.5905C122.273 68.5905 121.597 67.9149 121.597 67.0815C121.597 66.2481 122.273 65.5725 123.106 65.5725L123.31 65.5725C124.143 65.5725 124.819 66.2481 124.819 67.0815C124.819 67.9149 124.143 68.5905 123.31 68.5905Z" fill="#EFE2DD" fill-opacity="1.000000" fill-rule="nonzero"/>
		<path id="Vector" d="M128.087 68.5905L127.883 68.5905C127.049 68.5905 126.374 67.9149 126.374 67.0815C126.374 66.2481 127.049 65.5725 127.883 65.5725L128.087 65.5725C128.92 65.5725 129.596 66.2481 129.596 67.0815C129.596 67.9149 128.92 68.5905 128.087 68.5905Z" fill="#EFE2DD" fill-opacity="1.000000" fill-rule="nonzero"/>
		<path id="Vector" d="M132.863 68.5905L132.659 68.5905C131.826 68.5905 131.15 67.9149 131.15 67.0815C131.15 66.2481 131.826 65.5725 132.659 65.5725L132.863 65.5725C133.697 65.5725 134.372 66.2481 134.372 67.0815C134.373 67.9149 133.697 68.5905 132.863 68.5905Z" fill="#EFE2DD" fill-opacity="1.000000" fill-rule="nonzero"/>
		<path id="Vector" d="M137.64 68.5905L137.436 68.5905C136.603 68.5905 135.927 67.9149 135.927 67.0815C135.927 66.2481 136.603 65.5725 137.436 65.5725L137.64 65.5725C138.473 65.5725 139.149 66.2481 139.149 67.0815C139.149 67.9149 138.473 68.5905 137.64 68.5905Z" fill="#EFE2DD" fill-opacity="1.000000" fill-rule="nonzero"/>
		<path id="Vector" d="M155.423 62.6719L122.559 62.6719C121.726 62.6719 121.05 61.9963 121.05 61.1629C121.05 60.3295 121.726 59.6539 122.559 59.6539L155.423 59.6539C156.257 59.6539 156.932 60.3295 156.932 61.1629C156.933 61.9963 156.257 62.6719 155.423 62.6719Z" fill="#EFE2DD" fill-opacity="1.000000" fill-rule="nonzero"/>
		<path id="Vector" d="M131.417 57.0052L122.559 57.0052C121.726 57.0052 121.05 56.3297 121.05 55.4963C121.05 54.6629 121.726 53.9873 122.559 53.9873L131.417 53.9873C132.25 53.9873 132.926 54.6629 132.926 55.4963C132.926 56.3297 132.25 57.0052 131.417 57.0052Z" fill="#EFE2DD" fill-opacity="1.000000" fill-rule="nonzero"/>
		<path id="Vector" d="M143.291 19.2151L119.713 19.2151C117.135 19.2151 115.038 17.1185 115.038 14.541L115.038 9.42999C115.038 8.59662 115.714 7.92102 116.547 7.92102C117.381 7.92102 118.056 8.59662 118.056 9.42999L118.056 14.5411C118.056 15.4542 118.799 16.1972 119.712 16.1972L143.29 16.1972C144.204 16.1972 144.947 15.4542 144.947 14.5411L144.947 9.42999C144.947 8.59662 145.622 7.92102 146.456 7.92102C147.289 7.92102 147.964 8.59662 147.964 9.42999L147.964 14.5411C147.965 17.1185 145.868 19.2151 143.291 19.2151Z" fill="#FCA62F" fill-opacity="1.000000" fill-rule="nonzero"/>
		<path id="Vector" d="M149.107 10.6373L113.896 10.6373C112.785 10.6373 111.884 9.73651 111.884 8.62518L111.884 0L151.119 0L151.119 8.62518C151.119 9.73633 150.218 10.6373 149.107 10.6373Z" fill="#12C65A" fill-opacity="1.000000" fill-rule="nonzero"/>
		<path id="Vector" d="M151.119 0L151.119 8.62579C151.119 9.73651 150.218 10.6379 149.107 10.6379L145.145 10.6379C146.256 10.6379 147.157 9.73651 147.157 8.62579L147.157 0L151.119 0Z" fill="#0FAD4E" fill-opacity="1.000000" fill-rule="nonzero"/>
		<path id="Vector" d="M119.057 6.82776L118.863 6.82776C118.03 6.82776 117.354 6.15222 117.354 5.31879C117.354 4.48541 118.03 3.80981 118.863 3.80981L119.057 3.80981C119.89 3.80981 120.566 4.48541 120.566 5.31879C120.566 6.15222 119.89 6.82776 119.057 6.82776Z" fill="#FFFFFF" fill-opacity="1.000000" fill-rule="nonzero"/>
		<path id="Vector" d="M144.14 6.82776L143.946 6.82776C143.113 6.82776 142.437 6.15222 142.437 5.31879C142.437 4.48541 143.113 3.80981 143.946 3.80981L144.14 3.80981C144.973 3.80981 145.649 4.48541 145.649 5.31879C145.649 6.15222 144.973 6.82776 144.14 6.82776Z" fill="#FFFFFF" fill-opacity="1.000000" fill-rule="nonzero"/>
		<path id="Vector" d="M176.371 30.7502C176.371 37.7874 170.666 43.4922 163.629 43.4922C156.591 43.4922 150.887 37.7874 150.887 30.7502C150.887 23.713 156.591 18.0082 163.629 18.0082C170.666 18.0082 176.371 23.713 176.371 30.7502Z" fill="#12C65A" fill-opacity="1.000000" fill-rule="evenodd"/>
		<path id="Vector" d="M176.371 30.7506C176.371 37.7867 170.666 43.493 163.628 43.493C162.962 43.493 162.308 43.4426 161.669 43.3442C167.775 42.4005 172.451 37.121 172.451 30.7506C172.451 24.3784 167.775 19.1006 161.669 18.1591C162.308 18.0585 162.962 18.0081 163.628 18.0081C170.666 18.0081 176.371 23.7123 176.371 30.7506Z" fill="#0FAD4E" fill-opacity="1.000000" fill-rule="nonzero"/>
		<path id="Vector" d="M160.849 36.2833C160.463 36.2833 160.077 36.1359 159.782 35.8414L157.435 33.4939C156.845 32.9047 156.845 31.9492 157.435 31.3597C158.024 30.7704 158.979 30.7704 159.569 31.3597L160.849 32.64L167.83 25.6588C168.42 25.0695 169.375 25.0695 169.965 25.6588C170.554 26.248 170.554 27.2035 169.965 27.7929L161.916 35.8412C161.621 36.1359 161.235 36.2833 160.849 36.2833Z" fill="#FFFFFF" fill-opacity="1.000000" fill-rule="nonzero"/>
		<path id="Vector" d="M114.877 43.1802L109.042 43.1802C108.486 43.1802 108.036 42.7298 108.036 42.1741L108.036 36.3392C108.036 35.7835 108.486 35.3331 109.042 35.3331L114.877 35.3331C115.432 35.3331 115.883 35.7835 115.883 36.3392L115.883 42.1741C115.883 42.7296 115.432 43.1802 114.877 43.1802Z" fill="#B5CCBE" fill-opacity="1.000000" fill-rule="nonzero"/>
		<path id="Vector" d="M114.877 63.3434L109.042 63.3434C108.486 63.3434 108.036 62.893 108.036 62.3373L108.036 56.5024C108.036 55.9467 108.486 55.4963 109.042 55.4963L114.877 55.4963C115.432 55.4963 115.883 55.9467 115.883 56.5024L115.883 62.3373C115.883 62.893 115.432 63.3434 114.877 63.3434Z" fill="#B5CCBE" fill-opacity="1.000000" fill-rule="nonzero"/>
	</g>
</svg>
